<svg xmlns="http://www.w3.org/2000/svg" xmlns:xlink="http://www.w3.org/1999/xlink" width="500" zoomAndPan="magnify" viewBox="0 0 375 135.000003" height="180" preserveAspectRatio="xMidYMid meet" version="1.0"><defs><g/><clipPath id="2cd1666734"><path d="M 37 83 L 172.429688 83 L 172.429688 127.429688 L 37 127.429688 Z M 37 83 " clip-rule="nonzero"/></clipPath><clipPath id="ca09c66390"><path d="M 33.210938 9.054688 L 120 9.054688 L 120 121 L 33.210938 121 Z M 33.210938 9.054688 " clip-rule="nonzero"/></clipPath><clipPath id="d8c089dc20"><rect x="0" width="220" y="0" height="97"/></clipPath><clipPath id="a900d2d7b7"><rect x="0" width="206" y="0" height="26"/></clipPath></defs><g clip-path="url(#2cd1666734)"><path fill="#b76e79" d="M 167.570312 86.199219 C 165.941406 85.292969 164.179688 84.574219 162.328125 84.089844 C 161.40625 83.851562 160.460938 83.667969 159.503906 83.542969 L 159.414062 83.53125 L 159.367188 83.523438 L 159.320312 83.519531 L 159.140625 83.5 C 159.023438 83.484375 158.902344 83.472656 158.78125 83.460938 C 158.660156 83.449219 158.539062 83.4375 158.417969 83.425781 L 158.238281 83.410156 C 158.207031 83.410156 158.179688 83.40625 158.144531 83.402344 L 158.058594 83.398438 C 157.933594 83.390625 157.8125 83.382812 157.691406 83.375 C 157.632812 83.371094 157.570312 83.367188 157.511719 83.363281 L 157.328125 83.359375 C 157.207031 83.355469 157.085938 83.347656 156.960938 83.34375 C 156.839844 83.339844 156.71875 83.339844 156.597656 83.335938 C 156.109375 83.328125 155.617188 83.339844 155.128906 83.355469 C 155.003906 83.363281 154.882812 83.371094 154.761719 83.375 L 154.578125 83.386719 L 154.484375 83.390625 L 154.390625 83.398438 C 154.269531 83.40625 154.148438 83.417969 154.023438 83.425781 C 153.964844 83.429688 153.902344 83.433594 153.839844 83.441406 L 153.65625 83.457031 C 153.53125 83.46875 153.410156 83.480469 153.285156 83.492188 C 153.164062 83.507812 153.042969 83.519531 152.917969 83.535156 L 152.734375 83.554688 L 152.644531 83.566406 L 152.550781 83.582031 C 152.429688 83.597656 152.304688 83.613281 152.183594 83.628906 C 152.121094 83.636719 152.058594 83.644531 152 83.65625 L 151.816406 83.683594 C 151.691406 83.703125 151.570312 83.722656 151.445312 83.742188 C 151.324219 83.761719 151.203125 83.785156 151.078125 83.804688 L 150.894531 83.839844 C 150.835938 83.847656 150.773438 83.859375 150.710938 83.871094 C 149.734375 84.058594 148.757812 84.285156 147.789062 84.550781 L 147.695312 84.574219 L 147.605469 84.601562 L 147.425781 84.652344 C 147.304688 84.6875 147.183594 84.71875 147.0625 84.753906 C 146.941406 84.792969 146.820312 84.828125 146.699219 84.863281 C 146.578125 84.902344 146.460938 84.9375 146.339844 84.976562 C 146.097656 85.054688 145.855469 85.128906 145.617188 85.210938 C 145.5 85.25 145.378906 85.289062 145.257812 85.328125 C 145.136719 85.371094 145.019531 85.414062 144.898438 85.457031 C 144.421875 85.621094 143.945312 85.800781 143.46875 85.984375 C 143.351562 86.027344 143.234375 86.078125 143.113281 86.125 C 142.996094 86.171875 142.875 86.214844 142.757812 86.265625 C 142.640625 86.3125 142.523438 86.363281 142.402344 86.410156 L 142.050781 86.558594 C 141.109375 86.957031 140.175781 87.382812 139.246094 87.832031 C 138.320312 88.285156 137.402344 88.761719 136.488281 89.261719 L 136.320312 89.355469 L 136.148438 89.449219 C 136.035156 89.511719 135.921875 89.574219 135.804688 89.640625 C 135.691406 89.699219 135.582031 89.765625 135.46875 89.832031 C 135.351562 89.894531 135.242188 89.960938 135.125 90.023438 C 135.015625 90.089844 134.898438 90.15625 134.789062 90.21875 C 134.675781 90.285156 134.5625 90.351562 134.449219 90.417969 C 134.226562 90.550781 134 90.683594 133.777344 90.816406 C 133.664062 90.882812 133.550781 90.953125 133.441406 91.019531 C 133.328125 91.085938 133.214844 91.15625 133.101562 91.222656 C 132.992188 91.289062 132.878906 91.355469 132.765625 91.425781 C 132.65625 91.492188 132.542969 91.5625 132.433594 91.628906 C 132.207031 91.769531 131.984375 91.90625 131.761719 92.042969 C 131.539062 92.183594 131.316406 92.320312 131.09375 92.460938 L 130.757812 92.671875 C 130.644531 92.742188 130.535156 92.8125 130.421875 92.882812 C 130.3125 92.957031 130.199219 93.023438 130.089844 93.097656 C 129.976562 93.167969 129.867188 93.238281 129.753906 93.308594 C 129.53125 93.453125 129.3125 93.597656 129.089844 93.738281 C 128.867188 93.886719 128.644531 94.03125 128.421875 94.175781 C 124.871094 96.5 121.355469 98.980469 117.8125 101.515625 C 114.269531 104.050781 110.699219 106.640625 107.039062 109.175781 C 106.121094 109.808594 105.203125 110.441406 104.273438 111.066406 C 103.34375 111.691406 102.410156 112.3125 101.464844 112.921875 C 101.230469 113.078125 100.996094 113.226562 100.757812 113.378906 C 100.519531 113.53125 100.285156 113.683594 100.046875 113.835938 C 99.808594 113.984375 99.570312 114.136719 99.332031 114.289062 C 99.089844 114.4375 98.851562 114.585938 98.613281 114.734375 C 97.652344 115.332031 96.683594 115.917969 95.703125 116.492188 C 94.722656 117.0625 93.734375 117.625 92.738281 118.171875 C 91.738281 118.71875 90.726562 119.25 89.703125 119.765625 C 88.683594 120.28125 87.648438 120.777344 86.605469 121.253906 C 86.082031 121.492188 85.554688 121.722656 85.027344 121.953125 C 84.765625 122.0625 84.5 122.175781 84.234375 122.289062 C 84.101562 122.34375 83.96875 122.398438 83.835938 122.453125 C 83.703125 122.507812 83.566406 122.5625 83.433594 122.617188 C 83.320312 122.664062 83.203125 122.710938 83.085938 122.757812 C 82.972656 122.804688 82.855469 122.847656 82.738281 122.894531 C 82.621094 122.9375 82.503906 122.984375 82.390625 123.027344 L 82.214844 123.097656 C 82.15625 123.121094 82.097656 123.144531 82.039062 123.164062 C 81.574219 123.339844 81.105469 123.515625 80.636719 123.679688 C 80.519531 123.722656 80.402344 123.765625 80.285156 123.804688 L 79.933594 123.929688 C 79.699219 124.007812 79.460938 124.085938 79.226562 124.167969 C 79.167969 124.1875 79.109375 124.207031 79.050781 124.226562 L 78.871094 124.285156 C 78.753906 124.320312 78.636719 124.359375 78.519531 124.398438 C 78.398438 124.433594 78.28125 124.472656 78.164062 124.511719 L 78.074219 124.539062 L 77.988281 124.566406 L 77.808594 124.621094 C 77.570312 124.691406 77.335938 124.765625 77.097656 124.835938 C 77.039062 124.855469 76.980469 124.871094 76.917969 124.886719 L 76.742188 124.9375 C 76.621094 124.972656 76.503906 125.007812 76.382812 125.039062 C 76.265625 125.074219 76.144531 125.105469 76.027344 125.140625 C 75.90625 125.171875 75.789062 125.207031 75.667969 125.238281 C 75.429688 125.300781 75.191406 125.363281 74.953125 125.425781 C 74 125.671875 73.050781 125.882812 72.101562 125.992188 C 71.625 126.046875 71.152344 126.078125 70.683594 126.074219 C 70.214844 126.066406 69.746094 126.03125 69.292969 125.949219 C 69.234375 125.9375 69.179688 125.929688 69.121094 125.917969 L 69.035156 125.902344 L 68.996094 125.890625 L 68.953125 125.882812 C 68.84375 125.859375 68.738281 125.828125 68.632812 125.796875 C 68.527344 125.765625 68.421875 125.726562 68.316406 125.6875 C 68.214844 125.648438 68.113281 125.605469 68.015625 125.558594 C 67.917969 125.507812 67.820312 125.460938 67.726562 125.402344 L 67.65625 125.363281 L 67.585938 125.320312 C 67.542969 125.289062 67.496094 125.261719 67.457031 125.230469 C 67.433594 125.210938 67.410156 125.199219 67.390625 125.179688 L 67.328125 125.132812 C 67.308594 125.117188 67.289062 125.097656 67.269531 125.082031 L 67.238281 125.058594 C 67.226562 125.050781 67.21875 125.042969 67.207031 125.03125 C 67.128906 124.964844 67.058594 124.890625 66.992188 124.816406 C 66.859375 124.664062 66.753906 124.5 66.675781 124.328125 C 66.636719 124.242188 66.613281 124.15625 66.589844 124.066406 C 66.566406 123.976562 66.554688 123.882812 66.550781 123.792969 C 66.539062 123.605469 66.5625 123.417969 66.617188 123.226562 C 66.671875 123.035156 66.753906 122.839844 66.855469 122.648438 C 66.957031 122.457031 67.078125 122.265625 67.210938 122.078125 C 67.277344 121.980469 67.347656 121.886719 67.417969 121.792969 C 67.453125 121.746094 67.488281 121.699219 67.523438 121.652344 L 67.632812 121.511719 C 67.777344 121.328125 67.929688 121.144531 68.082031 120.964844 C 68.238281 120.785156 68.398438 120.605469 68.558594 120.429688 C 68.882812 120.078125 69.214844 119.734375 69.558594 119.394531 C 69.894531 119.054688 70.242188 118.71875 70.589844 118.382812 C 71.285156 117.710938 71.988281 117.046875 72.679688 116.371094 C 73.375 115.691406 74.054688 115 74.710938 114.28125 C 75.035156 113.917969 75.355469 113.550781 75.664062 113.171875 C 75.738281 113.078125 75.816406 112.984375 75.894531 112.886719 L 76.003906 112.742188 L 76.117188 112.597656 C 76.191406 112.5 76.261719 112.398438 76.335938 112.300781 C 76.371094 112.253906 76.40625 112.203125 76.441406 112.152344 C 76.476562 112.101562 76.511719 112.054688 76.546875 112 L 76.652344 111.851562 C 76.6875 111.800781 76.71875 111.746094 76.753906 111.695312 C 76.824219 111.59375 76.886719 111.488281 76.953125 111.386719 C 77.082031 111.175781 77.207031 110.964844 77.324219 110.746094 C 77.386719 110.636719 77.441406 110.527344 77.5 110.417969 C 77.527344 110.363281 77.554688 110.304688 77.582031 110.25 L 77.621094 110.167969 L 77.738281 109.910156 L 77.808594 109.738281 C 77.832031 109.683594 77.855469 109.625 77.878906 109.566406 L 77.910156 109.476562 C 77.921875 109.449219 77.933594 109.417969 77.945312 109.390625 L 78.007812 109.214844 C 78.019531 109.183594 78.027344 109.152344 78.035156 109.125 L 78.066406 109.035156 L 78.09375 108.945312 C 78.101562 108.914062 78.109375 108.882812 78.117188 108.855469 C 78.136719 108.792969 78.152344 108.734375 78.167969 108.671875 C 78.230469 108.429688 78.285156 108.179688 78.320312 107.929688 C 78.359375 107.679688 78.382812 107.425781 78.390625 107.171875 C 78.394531 106.917969 78.382812 106.660156 78.355469 106.402344 C 78.292969 105.890625 78.144531 105.378906 77.910156 104.914062 C 77.792969 104.683594 77.65625 104.457031 77.503906 104.25 C 77.347656 104.042969 77.175781 103.851562 76.992188 103.671875 C 76.625 103.316406 76.210938 103.023438 75.773438 102.78125 C 75.335938 102.539062 74.878906 102.351562 74.414062 102.203125 C 74.179688 102.128906 73.945312 102.066406 73.707031 102.011719 C 73.589844 101.984375 73.46875 101.960938 73.351562 101.933594 L 73.171875 101.902344 C 73.113281 101.890625 73.050781 101.886719 72.992188 101.875 C 72.753906 101.839844 72.515625 101.808594 72.273438 101.789062 C 72.035156 101.769531 71.792969 101.757812 71.554688 101.753906 C 71.3125 101.75 71.070312 101.753906 70.832031 101.765625 C 70.59375 101.78125 70.355469 101.800781 70.117188 101.828125 C 69.640625 101.886719 69.164062 101.976562 68.699219 102.109375 L 68.527344 102.160156 C 68.46875 102.175781 68.410156 102.195312 68.355469 102.214844 C 68.324219 102.222656 68.296875 102.234375 68.269531 102.242188 L 68.1875 102.273438 L 68.023438 102.332031 L 67.9375 102.359375 L 67.691406 102.453125 C 67.636719 102.472656 67.582031 102.492188 67.527344 102.511719 L 67.367188 102.574219 C 66.929688 102.746094 66.503906 102.925781 66.082031 103.121094 C 65.660156 103.3125 65.242188 103.515625 64.832031 103.722656 C 64.730469 103.777344 64.628906 103.828125 64.527344 103.882812 C 64.425781 103.9375 64.324219 103.988281 64.222656 104.042969 C 64.121094 104.097656 64.019531 104.152344 63.917969 104.207031 C 63.816406 104.261719 63.71875 104.320312 63.617188 104.375 C 63.21875 104.597656 62.820312 104.828125 62.429688 105.0625 C 62.039062 105.292969 61.648438 105.53125 61.265625 105.769531 C 60.496094 106.25 59.738281 106.738281 58.980469 107.222656 C 58.605469 107.464844 58.226562 107.707031 57.851562 107.945312 C 57.664062 108.0625 57.472656 108.183594 57.285156 108.300781 C 57.097656 108.417969 56.90625 108.535156 56.71875 108.652344 C 56.339844 108.890625 55.964844 109.125 55.585938 109.363281 C 55.210938 109.601562 54.835938 109.839844 54.464844 110.078125 C 52.972656 111.035156 51.507812 112.003906 50.066406 112.988281 C 49.707031 113.234375 49.347656 113.476562 48.988281 113.726562 C 48.8125 113.851562 48.632812 113.972656 48.457031 114.097656 C 48.277344 114.222656 48.097656 114.34375 47.921875 114.46875 C 47.570312 114.71875 47.21875 114.96875 46.867188 115.21875 C 46.515625 115.46875 46.167969 115.722656 45.820312 115.972656 C 43.039062 117.988281 40.363281 120.046875 37.800781 122.152344 C 43.546875 117.660156 49.847656 113.332031 56.632812 109.25 C 56.84375 109.121094 57.054688 108.996094 57.269531 108.867188 C 57.484375 108.738281 57.695312 108.609375 57.910156 108.480469 C 58.335938 108.222656 58.757812 107.957031 59.183594 107.695312 C 60.035156 107.167969 60.886719 106.636719 61.75 106.121094 C 62.613281 105.605469 63.488281 105.105469 64.386719 104.636719 C 65.28125 104.167969 66.199219 103.734375 67.140625 103.359375 C 67.375 103.265625 67.613281 103.175781 67.851562 103.085938 L 68.03125 103.023438 C 68.09375 103.003906 68.152344 102.980469 68.210938 102.960938 L 68.394531 102.898438 L 68.484375 102.871094 C 68.511719 102.859375 68.542969 102.851562 68.574219 102.839844 C 69.042969 102.691406 69.535156 102.589844 70.03125 102.527344 C 70.527344 102.464844 71.03125 102.441406 71.535156 102.457031 C 72.039062 102.472656 72.542969 102.523438 73.039062 102.613281 C 73.535156 102.703125 74.023438 102.835938 74.492188 103.011719 C 74.957031 103.191406 75.40625 103.414062 75.8125 103.691406 C 76.21875 103.972656 76.582031 104.308594 76.867188 104.695312 C 77.007812 104.890625 77.132812 105.097656 77.234375 105.316406 C 77.335938 105.535156 77.414062 105.761719 77.472656 105.996094 C 77.53125 106.230469 77.566406 106.472656 77.578125 106.714844 C 77.59375 106.960938 77.585938 107.207031 77.5625 107.453125 C 77.539062 107.699219 77.5 107.949219 77.441406 108.191406 C 77.386719 108.4375 77.316406 108.679688 77.234375 108.921875 C 77.152344 109.160156 77.054688 109.394531 76.949219 109.628906 L 76.871094 109.804688 L 76.785156 109.976562 C 76.753906 110.035156 76.722656 110.089844 76.695312 110.148438 L 76.648438 110.234375 C 76.632812 110.261719 76.617188 110.289062 76.601562 110.316406 C 76.480469 110.542969 76.34375 110.765625 76.203125 110.984375 C 76.0625 111.203125 75.914062 111.417969 75.761719 111.632812 C 75.148438 112.484375 74.449219 113.285156 73.714844 114.058594 C 72.976562 114.835938 72.203125 115.585938 71.414062 116.332031 C 70.628906 117.078125 69.824219 117.824219 69.039062 118.597656 C 68.839844 118.789062 68.644531 118.984375 68.449219 119.183594 C 68.253906 119.378906 68.0625 119.582031 67.871094 119.785156 C 67.679688 119.992188 67.492188 120.199219 67.308594 120.410156 C 67.125 120.625 66.941406 120.84375 66.769531 121.070312 C 66.597656 121.292969 66.425781 121.523438 66.261719 121.769531 C 66.101562 122.015625 65.949219 122.28125 65.828125 122.570312 C 65.765625 122.714844 65.714844 122.867188 65.671875 123.023438 C 65.652344 123.101562 65.632812 123.183594 65.617188 123.265625 C 65.605469 123.347656 65.59375 123.429688 65.585938 123.515625 C 65.582031 123.597656 65.578125 123.683594 65.578125 123.765625 C 65.582031 123.808594 65.582031 123.851562 65.585938 123.894531 L 65.597656 124.019531 C 65.617188 124.191406 65.65625 124.359375 65.710938 124.519531 L 65.730469 124.582031 C 65.738281 124.601562 65.746094 124.621094 65.753906 124.640625 L 65.800781 124.757812 L 65.859375 124.871094 C 65.875 124.910156 65.898438 124.945312 65.917969 124.980469 C 66 125.125 66.09375 125.261719 66.199219 125.390625 C 66.300781 125.515625 66.414062 125.632812 66.53125 125.738281 C 66.648438 125.847656 66.773438 125.945312 66.902344 126.039062 C 67.027344 126.128906 67.160156 126.210938 67.292969 126.289062 C 67.429688 126.363281 67.566406 126.433594 67.703125 126.5 C 67.984375 126.625 68.269531 126.726562 68.566406 126.804688 C 68.640625 126.824219 68.714844 126.84375 68.789062 126.859375 C 68.859375 126.875 68.933594 126.890625 69.003906 126.90625 C 69.078125 126.917969 69.152344 126.933594 69.222656 126.945312 L 69.441406 126.976562 C 69.734375 127.019531 70.03125 127.046875 70.324219 127.058594 C 70.910156 127.085938 71.496094 127.0625 72.074219 127.003906 C 72.652344 126.945312 73.222656 126.851562 73.785156 126.738281 C 74.066406 126.679688 74.347656 126.617188 74.625 126.550781 C 74.902344 126.484375 75.179688 126.417969 75.453125 126.34375 C 75.730469 126.273438 76.003906 126.199219 76.277344 126.125 C 76.550781 126.050781 76.828125 125.972656 77.101562 125.894531 L 77.308594 125.839844 C 77.375 125.816406 77.445312 125.796875 77.511719 125.777344 C 77.648438 125.734375 77.785156 125.695312 77.921875 125.652344 C 78.058594 125.613281 78.195312 125.570312 78.332031 125.53125 C 78.46875 125.488281 78.605469 125.445312 78.738281 125.402344 C 78.875 125.359375 79.011719 125.3125 79.148438 125.273438 C 79.285156 125.226562 79.421875 125.183594 79.554688 125.136719 C 79.828125 125.046875 80.097656 124.957031 80.371094 124.863281 C 80.4375 124.84375 80.503906 124.820312 80.570312 124.796875 L 80.773438 124.722656 C 80.910156 124.675781 81.042969 124.628906 81.179688 124.582031 C 81.449219 124.484375 81.71875 124.382812 81.988281 124.285156 C 82.121094 124.234375 82.257812 124.183594 82.390625 124.132812 C 82.457031 124.109375 82.523438 124.082031 82.59375 124.058594 L 82.792969 123.980469 C 82.925781 123.929688 83.058594 123.875 83.195312 123.824219 L 83.394531 123.746094 L 83.597656 123.667969 C 83.863281 123.558594 84.128906 123.449219 84.394531 123.339844 L 84.496094 123.300781 L 84.59375 123.257812 L 84.792969 123.175781 C 84.925781 123.121094 85.058594 123.0625 85.191406 123.007812 L 85.492188 122.882812 L 85.589844 122.835938 C 85.722656 122.78125 85.855469 122.722656 85.984375 122.664062 C 86.117188 122.605469 86.25 122.546875 86.382812 122.492188 L 86.480469 122.449219 L 86.578125 122.402344 L 86.777344 122.3125 C 86.910156 122.253906 87.039062 122.195312 87.171875 122.132812 L 87.367188 122.042969 L 87.46875 122 L 87.566406 121.953125 C 87.828125 121.832031 88.089844 121.707031 88.351562 121.585938 C 89.394531 121.085938 90.429688 120.566406 91.460938 120.03125 C 91.71875 119.894531 91.976562 119.757812 92.230469 119.621094 C 92.359375 119.554688 92.488281 119.484375 92.617188 119.417969 C 92.742188 119.347656 92.871094 119.277344 93 119.207031 C 93.128906 119.136719 93.253906 119.070312 93.382812 119 C 93.511719 118.929688 93.636719 118.859375 93.765625 118.785156 C 94.019531 118.644531 94.273438 118.503906 94.527344 118.359375 C 94.746094 118.234375 94.964844 118.109375 95.1875 117.984375 C 95.40625 117.859375 95.621094 117.730469 95.839844 117.605469 L 96.167969 117.414062 L 96.492188 117.222656 C 96.710938 117.09375 96.925781 116.964844 97.144531 116.835938 C 97.574219 116.574219 98.003906 116.316406 98.433594 116.050781 C 98.644531 115.917969 98.859375 115.789062 99.074219 115.65625 C 99.285156 115.519531 99.5 115.390625 99.710938 115.253906 C 99.925781 115.125 100.132812 114.988281 100.347656 114.851562 L 100.664062 114.652344 L 100.976562 114.449219 C 101.1875 114.3125 101.398438 114.175781 101.609375 114.042969 C 101.714844 113.972656 101.816406 113.90625 101.921875 113.835938 C 102.027344 113.769531 102.132812 113.699219 102.234375 113.628906 C 102.652344 113.359375 103.066406 113.082031 103.480469 112.804688 C 103.691406 112.667969 103.894531 112.527344 104.101562 112.390625 C 104.308594 112.25 104.515625 112.113281 104.722656 111.972656 C 104.925781 111.832031 105.132812 111.695312 105.335938 111.554688 C 105.539062 111.414062 105.746094 111.273438 105.949219 111.132812 C 106.359375 110.851562 106.765625 110.570312 107.171875 110.289062 C 107.980469 109.722656 108.789062 109.15625 109.589844 108.585938 C 111.195312 107.445312 112.78125 106.296875 114.359375 105.152344 C 117.511719 102.863281 120.617188 100.582031 123.730469 98.378906 C 126.839844 96.175781 129.953125 94.054688 133.105469 92.082031 C 133.304688 91.957031 133.5 91.835938 133.699219 91.710938 C 133.796875 91.652344 133.894531 91.589844 133.996094 91.53125 C 134.09375 91.46875 134.191406 91.410156 134.292969 91.347656 C 134.488281 91.230469 134.6875 91.109375 134.886719 90.988281 C 135.082031 90.867188 135.28125 90.75 135.480469 90.632812 C 136.273438 90.164062 137.074219 89.707031 137.878906 89.273438 C 139.492188 88.402344 141.128906 87.601562 142.789062 86.890625 C 144.453125 86.179688 146.140625 85.5625 147.851562 85.0625 C 149.558594 84.558594 151.289062 84.175781 153.027344 83.945312 C 153.894531 83.832031 154.765625 83.75 155.636719 83.714844 L 155.800781 83.707031 L 155.960938 83.703125 C 156.070312 83.703125 156.179688 83.699219 156.289062 83.695312 C 156.394531 83.695312 156.503906 83.695312 156.613281 83.695312 C 156.722656 83.691406 156.832031 83.691406 156.9375 83.691406 C 157.046875 83.695312 157.15625 83.695312 157.261719 83.699219 L 157.425781 83.703125 C 157.480469 83.703125 157.535156 83.703125 157.589844 83.707031 C 157.695312 83.710938 157.804688 83.714844 157.914062 83.71875 C 158.019531 83.726562 158.128906 83.730469 158.234375 83.738281 C 159.960938 83.839844 161.660156 84.125 163.292969 84.601562 C 164.113281 84.839844 164.914062 85.121094 165.691406 85.449219 C 166.46875 85.777344 167.226562 86.144531 167.957031 86.554688 C 169.425781 87.371094 170.785156 88.34375 172.042969 89.417969 C 170.691406 88.203125 169.199219 87.105469 167.570312 86.199219 " fill-opacity="1" fill-rule="nonzero"/></g><g clip-path="url(#ca09c66390)"><path fill="#b76e79" d="M 94.066406 48.109375 C 94.066406 48.109375 84.796875 54.367188 75.988281 48.21875 C 75.988281 48.21875 86.832031 48.855469 94.066406 48.109375 Z M 84.917969 61.867188 C 84.703125 61.972656 84.390625 62.121094 83.996094 62.292969 C 83.601562 62.46875 83.121094 62.664062 82.574219 62.871094 C 82.4375 62.921875 82.296875 62.976562 82.152344 63.027344 C 82.007812 63.082031 81.863281 63.136719 81.710938 63.191406 C 81.410156 63.296875 81.09375 63.40625 80.765625 63.507812 C 80.105469 63.71875 79.398438 63.914062 78.652344 64.082031 C 78.5625 64.101562 78.46875 64.121094 78.375 64.140625 C 78.28125 64.160156 78.1875 64.179688 78.09375 64.199219 C 77.902344 64.238281 77.714844 64.277344 77.523438 64.308594 C 77.136719 64.378906 76.746094 64.433594 76.351562 64.480469 C 75.5625 64.570312 74.753906 64.605469 73.945312 64.566406 C 73.136719 64.527344 72.324219 64.410156 71.535156 64.199219 C 71.679688 64.164062 71.820312 64.132812 71.964844 64.101562 L 72.398438 64.003906 L 73.261719 63.816406 C 73.839844 63.691406 74.414062 63.570312 74.984375 63.453125 C 75.558594 63.332031 76.128906 63.214844 76.703125 63.101562 C 77.277344 62.992188 77.851562 62.886719 78.421875 62.78125 C 78.996094 62.675781 79.566406 62.578125 80.136719 62.476562 L 80.988281 62.332031 C 81.128906 62.304688 81.273438 62.285156 81.414062 62.261719 L 81.84375 62.195312 C 82.984375 62.019531 84.121094 61.851562 85.246094 61.699219 C 85.246094 61.699219 85.132812 61.761719 84.917969 61.867188 Z M 37.980469 115.765625 C 37.789062 116.058594 37.394531 116.21875 37.011719 116.152344 C 36.382812 116.042969 36.066406 115.433594 36.378906 114.945312 C 36.570312 114.648438 36.96875 114.492188 37.347656 114.558594 C 37.980469 114.664062 38.296875 115.277344 37.980469 115.765625 Z M 119.195312 12.132812 C 119.179688 12.046875 119.136719 11.960938 119.074219 11.882812 C 119.007812 11.804688 118.917969 11.730469 118.808594 11.675781 C 118.144531 11.335938 117.453125 11.035156 116.738281 10.769531 L 116.605469 10.71875 C 116.558594 10.703125 116.511719 10.6875 116.464844 10.671875 L 116.183594 10.578125 L 115.898438 10.484375 C 115.847656 10.46875 115.804688 10.457031 115.757812 10.441406 L 115.617188 10.398438 C 115.429688 10.34375 115.246094 10.289062 115.054688 10.234375 C 114.871094 10.179688 114.6875 10.132812 114.5 10.082031 C 113.011719 9.691406 111.535156 9.429688 110.0625 9.269531 C 108.589844 9.113281 107.125 9.058594 105.667969 9.089844 C 105.308594 9.101562 104.941406 9.113281 104.578125 9.128906 C 104.21875 9.152344 103.859375 9.179688 103.5 9.207031 C 103.132812 9.230469 102.78125 9.273438 102.425781 9.3125 L 101.617188 9.40625 L 101.355469 9.445312 C 101.355469 9.445312 101.203125 9.460938 100.914062 9.511719 C 100.769531 9.535156 100.59375 9.570312 100.382812 9.613281 C 100.277344 9.636719 100.164062 9.660156 100.042969 9.6875 C 99.925781 9.71875 99.800781 9.75 99.667969 9.785156 C 99.136719 9.933594 98.476562 10.128906 97.753906 10.417969 C 97.574219 10.492188 97.386719 10.566406 97.191406 10.648438 C 97.09375 10.691406 96.996094 10.730469 96.898438 10.773438 C 96.800781 10.820312 96.703125 10.867188 96.601562 10.914062 C 96.203125 11.105469 95.785156 11.316406 95.347656 11.550781 C 94.925781 11.789062 94.484375 12.054688 94.03125 12.34375 C 93.800781 12.488281 93.582031 12.644531 93.355469 12.804688 C 93.128906 12.96875 92.902344 13.136719 92.671875 13.308594 C 92.554688 13.398438 92.441406 13.484375 92.324219 13.578125 C 92.210938 13.667969 92.097656 13.761719 91.984375 13.859375 C 91.757812 14.050781 91.527344 14.25 91.296875 14.453125 C 91.183594 14.558594 91.066406 14.664062 90.953125 14.769531 C 90.921875 14.796875 90.894531 14.820312 90.867188 14.847656 C 90.835938 14.875 90.808594 14.902344 90.78125 14.929688 C 90.726562 14.984375 90.667969 15.039062 90.613281 15.097656 C 90.390625 15.320312 90.164062 15.550781 89.941406 15.789062 C 89.484375 16.257812 89.0625 16.773438 88.632812 17.316406 C 88.527344 17.449219 88.417969 17.585938 88.3125 17.726562 C 88.261719 17.792969 88.207031 17.863281 88.15625 17.933594 C 88.105469 18.007812 88.054688 18.078125 88.003906 18.148438 C 87.800781 18.4375 87.601562 18.734375 87.402344 19.039062 C 87.300781 19.1875 87.203125 19.34375 87.105469 19.496094 C 87.058594 19.574219 87.007812 19.652344 86.960938 19.734375 C 86.914062 19.8125 86.867188 19.890625 86.820312 19.972656 C 86.636719 20.292969 86.457031 20.621094 86.277344 20.957031 C 86.1875 21.125 86.101562 21.296875 86.011719 21.46875 C 85.96875 21.554688 85.925781 21.640625 85.882812 21.726562 C 85.84375 21.816406 85.800781 21.902344 85.761719 21.992188 C 85.597656 22.347656 85.441406 22.707031 85.289062 23.078125 C 85.289062 23.078125 85.238281 22.941406 85.234375 22.617188 C 85.234375 22.449219 85.242188 22.238281 85.277344 21.96875 C 85.292969 21.832031 85.316406 21.683594 85.347656 21.519531 C 85.363281 21.433594 85.382812 21.347656 85.402344 21.257812 C 85.410156 21.214844 85.421875 21.167969 85.433594 21.121094 C 85.441406 21.070312 85.457031 21.023438 85.46875 20.976562 C 85.574219 20.585938 85.714844 20.128906 85.914062 19.597656 C 86.015625 19.332031 86.128906 19.050781 86.257812 18.746094 C 86.394531 18.445312 86.546875 18.121094 86.71875 17.78125 C 86.886719 17.441406 87.078125 17.078125 87.289062 16.691406 C 87.511719 16.3125 87.753906 15.910156 88.023438 15.484375 C 88.15625 15.273438 88.296875 15.054688 88.445312 14.832031 C 88.597656 14.609375 88.757812 14.382812 88.925781 14.148438 C 89.09375 13.914062 89.265625 13.675781 89.449219 13.429688 C 89.542969 13.308594 89.632812 13.1875 89.730469 13.058594 C 89.828125 12.9375 89.929688 12.8125 90.03125 12.683594 L 89.664062 12.839844 C 89.601562 12.867188 89.542969 12.894531 89.484375 12.921875 L 89.304688 13.003906 L 88.589844 13.332031 L 87.878906 13.671875 C 87.757812 13.726562 87.640625 13.785156 87.527344 13.84375 L 87.179688 14.019531 L 86.136719 14.558594 L 85.964844 14.652344 C 85.90625 14.683594 85.847656 14.714844 85.792969 14.742188 C 85.34375 14.996094 84.894531 15.246094 84.445312 15.503906 L 83.941406 15.796875 L 83.777344 15.894531 L 83.128906 16.296875 L 82.476562 16.703125 C 82.261719 16.839844 82.039062 16.976562 81.832031 17.113281 C 81.414062 17.394531 80.996094 17.679688 80.578125 17.964844 L 80.261719 18.179688 L 80.105469 18.285156 L 79.953125 18.398438 L 79.347656 18.835938 C 76.113281 21.203125 73.183594 23.808594 70.546875 26.542969 C 70.492188 26.601562 70.441406 26.65625 70.386719 26.714844 L 70.230469 26.886719 C 70.125 27 70.023438 27.117188 69.921875 27.234375 C 69.71875 27.464844 69.519531 27.703125 69.328125 27.945312 C 69.132812 28.1875 68.945312 28.429688 68.761719 28.675781 C 68.71875 28.738281 68.675781 28.800781 68.628906 28.863281 L 68.5 29.050781 C 68.417969 29.175781 68.332031 29.304688 68.25 29.429688 C 67.921875 29.941406 67.613281 30.460938 67.328125 30.988281 L 67.222656 31.1875 C 67.1875 31.253906 67.152344 31.320312 67.121094 31.386719 C 67.054688 31.519531 66.992188 31.65625 66.929688 31.792969 C 66.804688 32.0625 66.6875 32.332031 66.574219 32.605469 C 66.460938 32.878906 66.355469 33.15625 66.253906 33.429688 C 66.203125 33.570312 66.15625 33.707031 66.109375 33.847656 C 66.085938 33.917969 66.0625 33.984375 66.039062 34.054688 L 65.976562 34.265625 C 65.8125 34.824219 65.671875 35.390625 65.558594 35.957031 C 65.5 36.242188 65.449219 36.523438 65.40625 36.808594 C 65.382812 36.949219 65.363281 37.09375 65.34375 37.234375 C 65.324219 37.378906 65.3125 37.519531 65.300781 37.664062 C 65.246094 38.234375 65.222656 38.808594 65.222656 39.378906 C 65.222656 39.726562 65.226562 40.066406 65.238281 40.398438 C 65.242188 40.5625 65.25 40.726562 65.257812 40.890625 C 65.261719 40.929688 65.261719 40.972656 65.265625 41.011719 C 65.265625 41.050781 65.269531 41.089844 65.273438 41.132812 C 65.28125 41.210938 65.285156 41.289062 65.292969 41.371094 C 65.34375 42 65.417969 42.589844 65.515625 43.125 C 65.710938 44.191406 66.007812 45.035156 66.417969 45.535156 C 66.417969 45.535156 66.296875 45.476562 66.078125 45.261719 C 65.859375 45.050781 65.546875 44.683594 65.167969 44.066406 C 64.789062 43.449219 64.339844 42.582031 63.867188 41.355469 C 63.746094 41.046875 63.625 40.71875 63.503906 40.363281 C 63.386719 40.011719 63.257812 39.632812 63.144531 39.230469 C 62.910156 38.421875 62.675781 37.511719 62.449219 36.476562 C 59.402344 40.875 56.867188 45.359375 54.75 49.769531 C 52.632812 54.183594 50.933594 58.519531 49.539062 62.660156 C 49.421875 63.011719 49.3125 63.359375 49.214844 63.710938 C 49.117188 64.066406 49.023438 64.417969 48.949219 64.773438 C 48.796875 65.488281 48.683594 66.207031 48.605469 66.925781 C 48.566406 67.285156 48.539062 67.648438 48.519531 68.007812 C 48.507812 68.1875 48.5 68.371094 48.496094 68.550781 C 48.492188 68.640625 48.492188 68.730469 48.492188 68.820312 L 48.492188 69.089844 C 48.5 69.8125 48.542969 70.535156 48.628906 71.253906 C 48.695312 71.816406 48.769531 72.363281 48.855469 72.882812 C 48.898438 73.144531 48.945312 73.398438 48.992188 73.640625 C 49.042969 73.886719 49.097656 74.125 49.152344 74.351562 C 49.378906 75.257812 49.644531 76 49.960938 76.476562 C 49.960938 76.476562 49.609375 76.023438 49.054688 75.171875 C 48.777344 74.746094 48.445312 74.222656 48.085938 73.601562 C 47.992188 73.445312 47.902344 73.285156 47.804688 73.117188 C 47.714844 72.953125 47.617188 72.78125 47.523438 72.601562 C 47.328125 72.246094 47.132812 71.867188 46.929688 71.46875 C 46.640625 72.554688 46.394531 73.621094 46.152344 74.660156 C 46.03125 75.179688 45.914062 75.695312 45.800781 76.203125 C 45.746094 76.457031 45.691406 76.707031 45.632812 76.957031 C 45.582031 77.207031 45.53125 77.457031 45.480469 77.707031 C 45.28125 78.695312 45.09375 79.65625 44.917969 80.589844 C 44.875 80.824219 44.832031 81.054688 44.789062 81.285156 C 44.777344 81.339844 44.765625 81.398438 44.753906 81.453125 C 44.746094 81.511719 44.734375 81.570312 44.726562 81.625 C 44.707031 81.742188 44.6875 81.855469 44.667969 81.96875 C 44.59375 82.421875 44.519531 82.863281 44.449219 83.300781 C 44.304688 84.175781 44.175781 85.015625 44.050781 85.824219 C 44.039062 85.925781 44.023438 86.027344 44.007812 86.125 C 43.992188 86.226562 43.980469 86.324219 43.964844 86.425781 C 43.941406 86.621094 43.914062 86.816406 43.886719 87.011719 C 43.839844 87.398438 43.789062 87.78125 43.742188 88.148438 C 43.648438 88.890625 43.5625 89.59375 43.484375 90.261719 C 43.46875 90.429688 43.449219 90.59375 43.429688 90.753906 C 43.410156 90.917969 43.394531 91.078125 43.378906 91.234375 C 43.347656 91.550781 43.320312 91.855469 43.292969 92.152344 C 43.285156 92.199219 43.273438 92.25 43.257812 92.296875 L 42.4375 94.414062 L 42.027344 95.46875 L 41.921875 95.734375 L 41.824219 96 L 41.625 96.53125 L 40.832031 98.652344 L 40.4375 99.710938 L 40.238281 100.242188 L 40.042969 100.773438 L 39.1875 103.152344 L 39.230469 103.167969 C 39.117188 103.472656 39.007812 103.777344 38.894531 104.082031 C 38.53125 105.09375 38.179688 106.09375 37.84375 107.082031 C 37.761719 107.332031 37.675781 107.578125 37.59375 107.824219 C 37.515625 108.070312 37.4375 108.3125 37.359375 108.558594 C 37.203125 109.046875 37.050781 109.53125 36.902344 110.015625 C 36.78125 110.40625 36.664062 110.792969 36.546875 111.179688 L 33.304688 120.632812 C 33.234375 120.839844 33.542969 120.988281 33.699219 120.816406 C 35.488281 118.875 39.125 116.503906 40.152344 115.851562 C 40.273438 115.773438 40.253906 115.613281 40.121094 115.554688 C 39.214844 115.144531 38.519531 114.507812 37.992188 113.835938 C 39.175781 110.46875 40.351562 107.226562 41.511719 104.109375 L 41.535156 104.117188 L 42.347656 101.910156 C 42.550781 101.355469 42.765625 100.800781 42.976562 100.25 L 43.613281 98.585938 L 44.246094 96.925781 C 44.351562 96.648438 44.464844 96.371094 44.570312 96.097656 L 44.898438 95.269531 L 45.558594 93.613281 L 46.214844 91.957031 L 47.914062 87.835938 L 48.265625 87.015625 L 48.964844 85.375 L 49.667969 83.734375 C 49.726562 83.597656 49.789062 83.460938 49.847656 83.324219 L 50.03125 82.917969 L 50.394531 82.101562 L 51.121094 80.464844 L 51.484375 79.648438 C 51.605469 79.378906 51.730469 79.109375 51.855469 78.835938 L 53.359375 75.589844 L 54.910156 72.355469 C 57.011719 68.058594 59.230469 63.800781 61.605469 59.609375 C 62.1875 58.558594 62.808594 57.519531 63.417969 56.480469 L 63.875 55.699219 L 63.992188 55.503906 L 64.109375 55.3125 L 64.347656 54.925781 L 65.292969 53.375 L 65.527344 52.988281 C 65.609375 52.859375 65.683594 52.730469 65.769531 52.601562 L 66.257812 51.835938 L 67.234375 50.300781 L 67.355469 50.109375 L 67.417969 50.015625 L 67.480469 49.917969 L 67.734375 49.539062 L 68.238281 48.78125 L 68.742188 48.019531 L 68.996094 47.640625 L 69.121094 47.453125 C 69.164062 47.386719 69.207031 47.324219 69.25 47.261719 L 70.292969 45.761719 L 70.816406 45.007812 C 70.992188 44.761719 71.171875 44.511719 71.351562 44.265625 L 72.429688 42.78125 L 72.5625 42.59375 L 72.703125 42.410156 L 72.980469 42.042969 L 73.535156 41.3125 L 74.09375 40.578125 L 74.230469 40.394531 C 74.277344 40.332031 74.328125 40.273438 74.375 40.214844 L 74.664062 39.851562 L 75.8125 38.402344 C 75.859375 38.34375 75.90625 38.285156 75.957031 38.222656 L 76.105469 38.046875 L 76.398438 37.6875 L 77.585938 36.265625 L 78.195312 35.5625 L 78.808594 34.859375 L 79.113281 34.507812 C 79.167969 34.449219 79.214844 34.390625 79.269531 34.335938 L 79.425781 34.160156 L 80.6875 32.785156 L 80.847656 32.609375 C 80.898438 32.550781 80.957031 32.496094 81.007812 32.441406 L 81.335938 32.101562 L 82.3125 31.085938 L 82.472656 30.917969 C 82.53125 30.863281 82.585938 30.808594 82.640625 30.75 L 83.3125 30.089844 C 85.105469 28.320312 86.984375 26.613281 88.980469 25 L 88.847656 25.109375 C 88.804688 25.144531 88.761719 25.179688 88.71875 25.214844 L 88.464844 25.4375 L 87.441406 26.328125 L 87.253906 26.492188 L 87.191406 26.550781 L 86.941406 26.777344 L 85.953125 27.6875 L 85.707031 27.917969 L 85.464844 28.148438 L 84.988281 28.617188 L 84.507812 29.082031 L 84.269531 29.3125 C 84.230469 29.355469 84.1875 29.390625 84.148438 29.433594 L 84.03125 29.550781 L 83.105469 30.503906 L 82.640625 30.976562 C 82.488281 31.136719 82.339844 31.300781 82.1875 31.460938 L 81.289062 32.433594 C 78.914062 35.035156 76.710938 37.738281 74.640625 40.507812 C 72.570312 43.28125 70.632812 46.121094 68.796875 49.003906 L 68.105469 50.085938 L 67.933594 50.355469 L 67.769531 50.628906 L 67.433594 51.171875 L 66.769531 52.265625 L 66.4375 52.808594 L 66.269531 53.082031 L 66.109375 53.359375 L 64.820312 55.558594 L 64.660156 55.835938 L 64.578125 55.972656 L 64.5 56.109375 L 64.191406 56.664062 L 63.566406 57.773438 L 62.945312 58.882812 C 62.894531 58.976562 62.84375 59.070312 62.792969 59.164062 L 62.644531 59.441406 L 62.34375 60.003906 C 61.941406 60.746094 61.539062 61.492188 61.144531 62.238281 L 59.980469 64.488281 L 59.691406 65.050781 C 59.59375 65.238281 59.496094 65.425781 59.402344 65.617188 L 58.84375 66.75 L 58.28125 67.882812 L 58.003906 68.449219 L 57.792969 68.871094 L 57.722656 69.015625 L 56.640625 71.292969 L 56.097656 72.433594 L 55.574219 73.578125 L 54.527344 75.871094 L 54.398438 76.15625 C 54.355469 76.253906 54.3125 76.351562 54.269531 76.445312 L 54.019531 77.023438 L 53.007812 79.324219 C 52.839844 79.710938 52.667969 80.09375 52.507812 80.480469 L 51.535156 82.792969 L 51.046875 83.953125 C 50.964844 84.144531 50.886719 84.339844 50.808594 84.53125 L 50.574219 85.113281 L 49.632812 87.4375 L 49.394531 88.019531 L 49.277344 88.308594 L 49.164062 88.601562 L 48.710938 89.769531 L 47.800781 92.105469 L 47.574219 92.6875 L 47.355469 93.273438 L 46.914062 94.445312 C 46.726562 94.945312 47.308594 95.402344 47.765625 95.117188 C 48.464844 94.679688 49.152344 94.242188 49.832031 93.804688 C 50.171875 93.589844 50.511719 93.375 50.847656 93.160156 C 51.1875 92.941406 51.519531 92.726562 51.851562 92.515625 C 52.515625 92.085938 53.171875 91.660156 53.8125 91.234375 C 54.132812 91.019531 54.453125 90.808594 54.769531 90.597656 C 55.089844 90.382812 55.40625 90.175781 55.722656 89.964844 C 56.351562 89.546875 56.972656 89.128906 57.578125 88.710938 C 57.882812 88.503906 58.183594 88.296875 58.484375 88.085938 C 58.785156 87.878906 59.078125 87.671875 59.378906 87.46875 C 60.570312 86.648438 61.722656 85.832031 62.835938 85.019531 C 67.316406 81.792969 71.269531 78.695312 74.761719 75.714844 C 73.710938 75.816406 72.753906 75.886719 71.878906 75.941406 C 71.011719 75.996094 70.234375 76.03125 69.53125 76.042969 C 68.132812 76.074219 67.050781 76.027344 66.230469 75.945312 C 65.414062 75.867188 64.859375 75.757812 64.511719 75.664062 C 64.160156 75.574219 64.015625 75.5 64.015625 75.5 C 65.601562 76.011719 67.410156 75.902344 69.230469 75.472656 C 69.457031 75.417969 69.683594 75.359375 69.914062 75.296875 C 70.027344 75.265625 70.140625 75.230469 70.253906 75.199219 C 70.367188 75.164062 70.480469 75.128906 70.597656 75.09375 C 71.054688 74.953125 71.511719 74.796875 71.960938 74.628906 C 72.859375 74.289062 73.738281 73.90625 74.570312 73.507812 C 74.78125 73.40625 74.988281 73.308594 75.191406 73.207031 C 75.394531 73.109375 75.597656 73.007812 75.792969 72.910156 C 76.1875 72.710938 76.570312 72.511719 76.929688 72.3125 C 77.292969 72.117188 77.636719 71.925781 77.960938 71.742188 C 78.285156 71.558594 78.589844 71.382812 78.871094 71.222656 C 80.003906 70.570312 80.75 70.09375 80.914062 70.015625 C 80.933594 70.007812 80.953125 70.011719 80.96875 70.027344 C 80.988281 70.042969 81.019531 70.046875 81.035156 70.027344 C 84.023438 67.144531 86.585938 64.371094 88.800781 61.691406 C 91.019531 59.015625 92.886719 56.429688 94.496094 53.925781 C 94.59375 53.765625 94.691406 53.609375 94.789062 53.449219 C 94.890625 53.296875 94.988281 53.140625 95.085938 52.988281 C 95.277344 52.679688 95.46875 52.371094 95.652344 52.058594 C 95.699219 51.980469 95.742188 51.902344 95.789062 51.824219 L 95.855469 51.707031 L 95.925781 51.59375 C 96.015625 51.441406 96.109375 51.289062 96.195312 51.136719 C 96.375 50.832031 96.550781 50.527344 96.71875 50.21875 C 96.761719 50.140625 96.804688 50.0625 96.84375 49.988281 C 96.886719 49.910156 96.929688 49.839844 96.972656 49.761719 C 97.058594 49.613281 97.140625 49.464844 97.222656 49.3125 C 97.386719 49.011719 97.546875 48.707031 97.703125 48.402344 C 97.742188 48.328125 97.78125 48.253906 97.820312 48.179688 C 97.859375 48.105469 97.898438 48.03125 97.941406 47.957031 C 98.015625 47.808594 98.09375 47.660156 98.171875 47.511719 C 98.246094 47.363281 98.320312 47.214844 98.394531 47.0625 C 98.433594 46.988281 98.46875 46.914062 98.503906 46.835938 C 98.542969 46.761719 98.578125 46.6875 98.617188 46.613281 C 99.789062 44.246094 100.789062 41.9375 101.710938 39.671875 C 101.367188 39.691406 101.027344 39.707031 100.699219 39.722656 C 100.363281 39.75 100.039062 39.773438 99.71875 39.796875 C 99.558594 39.8125 99.398438 39.824219 99.242188 39.835938 C 99.160156 39.839844 99.082031 39.847656 99.003906 39.851562 C 98.964844 39.855469 98.925781 39.859375 98.886719 39.863281 C 98.847656 39.863281 98.808594 39.871094 98.769531 39.875 C 98.457031 39.90625 98.152344 39.9375 97.855469 39.964844 C 97.554688 39.996094 97.261719 40.023438 96.976562 40.050781 C 96.941406 40.054688 96.902344 40.058594 96.867188 40.0625 C 96.832031 40.066406 96.796875 40.070312 96.761719 40.074219 C 96.691406 40.082031 96.621094 40.09375 96.550781 40.101562 C 96.410156 40.117188 96.273438 40.132812 96.136719 40.148438 C 95.859375 40.183594 95.589844 40.210938 95.328125 40.242188 C 95.195312 40.257812 95.0625 40.273438 94.9375 40.285156 C 94.871094 40.292969 94.808594 40.300781 94.742188 40.308594 C 94.679688 40.316406 94.617188 40.324219 94.554688 40.332031 C 94.054688 40.398438 93.578125 40.457031 93.125 40.511719 C 92.894531 40.535156 92.675781 40.5625 92.460938 40.585938 C 92.351562 40.597656 92.246094 40.613281 92.144531 40.625 C 92.039062 40.640625 91.9375 40.652344 91.835938 40.664062 C 91.433594 40.714844 91.050781 40.757812 90.695312 40.796875 C 90.511719 40.816406 90.339844 40.835938 90.171875 40.851562 C 90.089844 40.859375 90.003906 40.867188 89.925781 40.875 C 89.84375 40.882812 89.761719 40.890625 89.6875 40.898438 C 88.445312 41.03125 87.558594 41.070312 86.984375 41.070312 C 86.914062 41.070312 86.847656 41.070312 86.785156 41.070312 C 86.722656 41.070312 86.667969 41.070312 86.613281 41.070312 C 86.511719 41.066406 86.425781 41.066406 86.359375 41.0625 C 86.222656 41.054688 86.160156 41.046875 86.160156 41.046875 C 86.273438 41.039062 86.386719 41.027344 86.503906 41.011719 C 86.5625 41.007812 86.621094 41 86.679688 40.992188 C 86.738281 40.980469 86.800781 40.972656 86.859375 40.964844 C 87.101562 40.933594 87.351562 40.890625 87.601562 40.835938 C 88.109375 40.730469 88.636719 40.589844 89.171875 40.421875 C 89.242188 40.398438 89.308594 40.378906 89.378906 40.359375 C 89.445312 40.335938 89.515625 40.316406 89.585938 40.292969 C 89.722656 40.25 89.863281 40.207031 90.003906 40.160156 C 90.28125 40.066406 90.5625 39.96875 90.847656 39.863281 C 91.410156 39.648438 92 39.4375 92.585938 39.203125 C 92.730469 39.148438 92.875 39.089844 93.023438 39.027344 C 93.097656 38.996094 93.167969 38.96875 93.242188 38.9375 L 93.351562 38.890625 L 93.464844 38.847656 C 93.757812 38.730469 94.054688 38.613281 94.351562 38.492188 C 94.496094 38.429688 94.644531 38.367188 94.789062 38.304688 L 95.011719 38.210938 L 95.121094 38.164062 C 95.15625 38.148438 95.195312 38.136719 95.230469 38.121094 C 95.527344 38.003906 95.820312 37.882812 96.109375 37.761719 C 96.253906 37.699219 96.398438 37.640625 96.542969 37.578125 C 96.617188 37.546875 96.6875 37.519531 96.757812 37.488281 C 96.832031 37.457031 96.902344 37.429688 96.976562 37.402344 C 97.261719 37.285156 97.546875 37.171875 97.828125 37.054688 C 97.96875 36.996094 98.105469 36.9375 98.246094 36.882812 L 98.347656 36.839844 L 98.453125 36.796875 C 98.519531 36.773438 98.589844 36.746094 98.660156 36.71875 C 98.933594 36.609375 99.203125 36.503906 99.464844 36.398438 C 99.816406 36.253906 100.15625 36.113281 100.484375 35.945312 C 100.644531 35.859375 100.804688 35.773438 100.960938 35.679688 L 101.074219 35.609375 L 101.191406 35.539062 C 101.269531 35.496094 101.34375 35.449219 101.417969 35.398438 C 101.566406 35.304688 101.714844 35.203125 101.855469 35.097656 C 101.929688 35.042969 102 34.988281 102.066406 34.933594 L 102.171875 34.851562 L 102.273438 34.769531 C 102.550781 34.550781 102.808594 34.316406 103.054688 34.058594 C 104.046875 33.0625 104.839844 31.847656 105.460938 30.40625 C 105.585938 30.121094 105.707031 29.835938 105.828125 29.554688 C 105.957031 29.277344 106.082031 28.996094 106.207031 28.722656 C 106.269531 28.582031 106.332031 28.445312 106.394531 28.304688 C 106.460938 28.167969 106.527344 28.03125 106.589844 27.898438 C 106.71875 27.625 106.847656 27.351562 106.980469 27.078125 C 107.117188 26.808594 107.25 26.542969 107.382812 26.277344 C 107.414062 26.210938 107.449219 26.144531 107.484375 26.078125 C 107.515625 26.011719 107.550781 25.941406 107.585938 25.878906 C 107.652344 25.75 107.722656 25.617188 107.792969 25.488281 C 107.859375 25.359375 107.929688 25.226562 108 25.097656 C 108.035156 25.03125 108.070312 24.96875 108.105469 24.902344 L 108.15625 24.804688 L 108.207031 24.710938 C 108.355469 24.453125 108.496094 24.199219 108.636719 23.949219 C 108.78125 23.695312 108.925781 23.453125 109.074219 23.207031 C 109.148438 23.082031 109.222656 22.960938 109.296875 22.839844 C 109.335938 22.777344 109.371094 22.714844 109.410156 22.65625 C 109.445312 22.59375 109.484375 22.535156 109.519531 22.476562 C 109.671875 22.238281 109.824219 22.003906 109.976562 21.765625 C 110.015625 21.707031 110.050781 21.648438 110.089844 21.589844 C 110.128906 21.535156 110.167969 21.476562 110.207031 21.417969 C 110.285156 21.304688 110.363281 21.191406 110.441406 21.078125 C 110.515625 20.964844 110.597656 20.851562 110.671875 20.738281 C 110.710938 20.683594 110.75 20.625 110.789062 20.570312 C 110.832031 20.515625 110.871094 20.460938 110.910156 20.40625 C 111.066406 20.191406 111.226562 19.972656 111.386719 19.757812 C 111.464844 19.648438 111.546875 19.546875 111.625 19.445312 C 111.707031 19.339844 111.789062 19.238281 111.867188 19.132812 C 111.949219 19.03125 112.03125 18.929688 112.109375 18.828125 C 112.191406 18.726562 112.273438 18.628906 112.355469 18.53125 C 112.515625 18.335938 112.679688 18.144531 112.84375 17.953125 C 113.003906 17.765625 113.171875 17.582031 113.332031 17.402344 C 113.414062 17.3125 113.496094 17.222656 113.578125 17.132812 C 113.660156 17.046875 113.742188 16.960938 113.824219 16.875 C 113.988281 16.707031 114.148438 16.539062 114.3125 16.375 C 114.640625 16.058594 114.957031 15.746094 115.28125 15.464844 C 115.359375 15.390625 115.4375 15.320312 115.519531 15.25 C 115.59375 15.183594 115.671875 15.113281 115.753906 15.046875 C 115.910156 14.914062 116.066406 14.785156 116.21875 14.664062 C 117.414062 13.671875 118.398438 12.988281 118.988281 12.582031 C 119.160156 12.46875 119.226562 12.300781 119.195312 12.132812 " fill-opacity="1" fill-rule="nonzero"/></g><g transform="matrix(1, 0, 0, 1, 103, 2)"><g clip-path="url(#d8c089dc20)"><g fill="#b76e79" fill-opacity="0.2"><g transform="translate(0.861593, 79.251092)"><g><path d="M 98.460938 -68.261719 C 98.460938 -70.464844 96.542969 -72.191406 94.433594 -72.191406 C 87.722656 -72.191406 79.285156 -64.234375 75.355469 -59.34375 C 72.382812 -55.703125 69.796875 -51.675781 67.304688 -47.746094 C 63.179688 -41.320312 59.25 -34.707031 55.414062 -28.089844 C 45.636719 -23.585938 37.390625 -19.941406 26.460938 -19.941406 C 22.050781 -19.941406 16.875 -20.996094 13.328125 -23.679688 C 9.585938 -26.460938 8.4375 -29.242188 7.765625 -33.746094 C 12.75 -31.445312 17.832031 -30.488281 23.296875 -30.488281 C 28.472656 -30.488281 33.652344 -31.542969 38.539062 -33.269531 C 48.800781 -36.816406 64.234375 -46.976562 64.234375 -59.25 C 64.234375 -67.207031 55.414062 -69.796875 48.894531 -69.796875 C 43.144531 -69.796875 37.390625 -68.742188 32.023438 -66.726562 C 19.75 -62.03125 6.328125 -50.523438 6.039062 -36.433594 C 3.257812 -39.210938 1.628906 -41.609375 1.628906 -45.636719 C 1.628906 -50.910156 5.464844 -57.332031 9.683594 -60.398438 C 9.875 -60.589844 10.257812 -60.785156 10.257812 -61.070312 C 10.257812 -61.261719 10.066406 -61.453125 9.875 -61.453125 C 7.957031 -61.453125 4.121094 -56.375 3.164062 -54.839844 C 1.4375 -51.964844 0.289062 -49.183594 0.289062 -45.828125 C 0.289062 -40.746094 2.589844 -37.773438 6.230469 -34.515625 C 7.863281 -22.339844 15.914062 -18.597656 27.324219 -18.597656 C 37.101562 -18.597656 45.347656 -21.953125 54.167969 -25.695312 C 49.664062 -17.351562 44.867188 -10.164062 36.527344 -5.273438 C 30.96875 -6.710938 25.40625 -8.148438 19.652344 -8.148438 C 17.257812 -8.148438 9.683594 -7.476562 9.683594 -3.835938 C 9.683594 -0.765625 16.011719 0 18.121094 0 C 23.96875 0 29.625 -1.4375 35.183594 -2.875 C 38.734375 -1.054688 42.28125 0.765625 45.921875 2.589844 C 50.429688 4.792969 58.769531 9.492188 64.042969 9.492188 C 67.496094 9.492188 71.042969 8.339844 73.824219 6.230469 C 74.300781 5.847656 76.507812 4.21875 76.507812 3.355469 C 76.507812 3.066406 76.316406 2.875 76.027344 2.875 C 75.644531 2.972656 75.355469 3.257812 75.070312 3.453125 C 73.246094 4.699219 71.042969 5.367188 68.742188 5.367188 C 65.863281 5.367188 60.113281 3.164062 57.429688 2.109375 C 51.292969 -0.289062 45.15625 -2.492188 38.828125 -4.507812 C 51.101562 -11.792969 58.578125 -20.230469 65.578125 -32.597656 C 73.152344 -37.871094 80.339844 -43.144531 86.667969 -49.949219 C 90.214844 -53.6875 98.460938 -62.699219 98.460938 -68.261719 Z M 96.925781 -68.261719 C 96.925781 -63.085938 89.929688 -55.511719 86.765625 -51.964844 C 81.011719 -45.539062 74.300781 -40.554688 67.304688 -35.570312 C 71.234375 -43.910156 76.125 -54.933594 81.875 -62.222656 C 84.558594 -65.578125 89.738281 -70.753906 94.433594 -70.753906 C 95.777344 -70.753906 96.925781 -69.605469 96.925781 -68.261719 Z M 62.894531 -59.25 C 62.894531 -47.839844 47.839844 -38.253906 38.445312 -34.800781 C 33.363281 -32.980469 27.996094 -31.828125 22.53125 -31.828125 C 17.640625 -31.828125 12.078125 -33.269531 7.667969 -35.378906 C 7.667969 -55.511719 31.0625 -68.453125 48.992188 -68.453125 C 54.742188 -68.453125 62.894531 -66.441406 62.894531 -59.25 Z M 32.40625 -3.738281 C 27.226562 -2.011719 24.542969 -1.535156 19.078125 -1.535156 C 17.542969 -1.535156 11.3125 -1.726562 11.3125 -4.027344 C 11.3125 -6.039062 16.777344 -6.710938 18.121094 -6.710938 C 22.433594 -6.710938 28.28125 -5.175781 32.40625 -3.738281 Z M 32.40625 -3.738281 "/></g></g></g><g fill="#b76e79" fill-opacity="0.2"><g transform="translate(82.445018, 79.251092)"><g><path d="M 29.144531 -17.066406 C 29.144531 -17.351562 28.859375 -17.449219 28.667969 -17.449219 C 28.378906 -17.449219 26.75 -15.914062 26.460938 -15.628906 C 23.007812 -12.941406 20.324219 -12.078125 16.011719 -12.078125 C 17.640625 -14.765625 19.75 -18.121094 19.75 -21.378906 C 19.75 -24.0625 18.214844 -25.695312 15.53125 -25.695312 C 7.476562 -25.695312 -7.191406 -14.09375 -7.191406 -5.65625 C -7.191406 -2.78125 -4.890625 0 -1.917969 0 C 3.738281 0 11.410156 -6.902344 15.050781 -10.929688 C 16.203125 -10.738281 17.257812 -10.738281 18.40625 -10.738281 C 20.230469 -10.738281 23.871094 -12.367188 25.308594 -13.421875 C 25.980469 -13.902344 29.144531 -16.296875 29.144531 -17.066406 Z M 18.40625 -21.570312 C 18.40625 -17.929688 14.1875 -11.984375 11.695312 -9.492188 C 9.300781 -7.09375 2.492188 -1.4375 -1.152344 -1.4375 C -2.683594 -1.4375 -3.929688 -2.492188 -3.929688 -4.121094 C -3.929688 -6.519531 0 -11.121094 1.34375 -12.75 C 4.3125 -16.394531 10.929688 -23.777344 16.203125 -23.777344 C 17.449219 -23.777344 18.40625 -22.816406 18.40625 -21.570312 Z M 18.40625 -21.570312 "/></g></g></g><g fill="#b76e79" fill-opacity="0.2"><g transform="translate(107.178626, 79.251092)"><g><path d="M 23.871094 -16.96875 C 23.871094 -17.257812 23.585938 -17.449219 23.296875 -17.449219 C 22.433594 -17.449219 9.011719 -2.207031 4.027344 -2.207031 C 3.257812 -2.207031 2.683594 -2.78125 2.683594 -3.546875 C 2.683594 -8.917969 13.710938 -19.367188 16.875 -22.433594 C 17.160156 -22.722656 18.792969 -24.0625 18.792969 -24.542969 C 18.792969 -24.832031 18.3125 -25.214844 18.121094 -25.40625 C 16.296875 -24.925781 14.285156 -24.351562 12.464844 -24.351562 C 11.601562 -24.351562 10.738281 -24.640625 9.972656 -25.023438 C 10.832031 -25.886719 11.984375 -27.035156 11.984375 -28.378906 C 11.984375 -29.335938 11.503906 -30.488281 10.355469 -30.488281 C 7.957031 -30.488281 7.09375 -27.226562 7.09375 -25.308594 C 4.890625 -22.625 2.589844 -20.039062 0.0976562 -17.640625 C -0.0976562 -17.449219 -0.671875 -16.96875 -0.671875 -16.585938 C -0.671875 -16.296875 -0.480469 -16.105469 -0.191406 -16.105469 C 0.480469 -16.105469 6.617188 -22.914062 7.476562 -23.871094 C 8.339844 -23.203125 9.777344 -22.625 10.832031 -22.625 C 11.792969 -22.625 12.75 -22.722656 13.710938 -23.007812 C 9.394531 -19.460938 -1.4375 -10.832031 -1.4375 -4.699219 C -1.4375 -2.011719 0.0976562 -0.382812 2.78125 -0.382812 C 7.667969 -0.382812 17.351562 -10.164062 20.898438 -13.613281 C 21.285156 -13.996094 23.871094 -16.488281 23.871094 -16.96875 Z M 23.871094 -16.96875 "/></g></g></g><g fill="#b76e79" fill-opacity="0.2"><g transform="translate(126.639482, 79.251092)"><g><path d="M 25.597656 -17.066406 C 25.597656 -17.257812 25.40625 -17.449219 25.214844 -17.449219 C 24.542969 -17.449219 22.914062 -15.628906 22.433594 -15.148438 C 18.3125 -11.027344 7.285156 -1.628906 1.054688 -1.628906 C -1.054688 -1.628906 -2.492188 -3.066406 -2.492188 -5.175781 C -2.492188 -6.617188 -1.820312 -7.765625 -1.054688 -8.917969 C 4.410156 -10.738281 17.738281 -15.339844 17.738281 -22.53125 C 17.738281 -24.542969 15.820312 -25.40625 14.09375 -25.40625 C 9.683594 -25.40625 2.78125 -20.707031 0 -17.640625 C -2.683594 -14.765625 -5.847656 -10.832031 -5.847656 -6.710938 C -5.847656 -3.066406 -2.78125 0 0.863281 0 C 8.246094 0 21.1875 -11.792969 25.597656 -17.066406 Z M 15.820312 -22.816406 C 15.820312 -20.324219 12.847656 -17.449219 11.121094 -16.011719 C 7.863281 -13.328125 3.644531 -11.886719 -0.191406 -10.449219 C 2.109375 -13.996094 9.492188 -24.257812 14.1875 -24.257812 C 15.050781 -24.257812 15.820312 -23.777344 15.820312 -22.816406 Z M 15.820312 -22.816406 "/></g></g></g><g fill="#b76e79" fill-opacity="0.2"><g transform="translate(147.825984, 79.251092)"><g><path d="M -5.65625 -0.765625 L -0.289062 -1.054688 C 5.082031 -6.808594 9.394531 -13.710938 15.53125 -18.792969 C 17.066406 -20.039062 21.570312 -24.0625 23.777344 -24.0625 C 24.351562 -24.0625 24.832031 -23.585938 24.832031 -23.007812 C 24.832031 -19.941406 12.847656 -9.300781 12.847656 -4.121094 C 12.847656 -2.109375 14.667969 -0.289062 16.683594 -0.289062 C 23.394531 -0.289062 32.40625 -10.832031 36.816406 -15.4375 C 37.199219 -15.820312 38.253906 -16.777344 38.253906 -17.257812 C 38.253906 -17.449219 38.15625 -17.832031 37.871094 -17.832031 C 37.007812 -17.832031 23.679688 -2.109375 18.3125 -2.109375 C 17.351562 -2.109375 16.96875 -2.683594 16.96875 -3.546875 C 16.96875 -8.054688 28.472656 -17.160156 28.472656 -22.53125 C 28.472656 -24.351562 27.035156 -25.597656 25.308594 -25.597656 C 20.996094 -25.597656 16.296875 -21.1875 13.132812 -18.597656 C 13.710938 -19.941406 14.382812 -21.285156 14.382812 -22.722656 C 14.382812 -24.640625 13.132812 -26.078125 11.21875 -26.078125 C 8.246094 -26.078125 7.285156 -24.832031 5.273438 -22.816406 C 4.027344 -21.570312 2.683594 -20.230469 1.4375 -18.984375 C 1.152344 -18.695312 -0.671875 -16.96875 -0.671875 -16.585938 C -0.671875 -16.394531 -0.574219 -16.105469 -0.289062 -16.105469 C 0.957031 -16.105469 7.285156 -24.257812 9.972656 -24.257812 C 10.738281 -24.257812 11.121094 -23.585938 11.121094 -22.914062 C 11.121094 -20.898438 6.136719 -15.148438 4.984375 -13.710938 Z M -5.65625 -0.765625 "/></g></g></g><g fill="#b76e79" fill-opacity="0.2"><g transform="translate(181.475335, 79.251092)"><g><path d="M 19.75 -21.761719 C 19.847656 -22.050781 19.941406 -22.433594 19.941406 -22.722656 C 19.941406 -24.449219 17.640625 -24.925781 16.296875 -24.925781 C 8.054688 -24.925781 -7.765625 -14.1875 -7.765625 -5.273438 C -7.765625 -2.109375 -5.367188 0 -2.300781 0 C 1.34375 0 5.753906 -4.507812 8.246094 -6.808594 C 7.863281 -5.65625 7.382812 -4.21875 7.382812 -3.066406 C 7.382812 -0.957031 9.109375 0 11.027344 0 C 16.683594 0 26.269531 -8.722656 30.105469 -12.464844 C 30.773438 -13.039062 34.324219 -16.203125 34.324219 -16.96875 C 34.324219 -17.257812 34.226562 -17.449219 33.9375 -17.449219 C 33.460938 -17.449219 17.542969 -1.628906 12.65625 -1.628906 C 11.984375 -1.628906 11.121094 -2.011719 11.121094 -2.875 C 11.121094 -4.027344 14.09375 -7.957031 14.859375 -8.917969 L 27.324219 -24.640625 L 21.859375 -24.351562 Z M 18.023438 -21.667969 C 18.023438 -17.351562 1.820312 -1.152344 -2.300781 -1.152344 C -3.257812 -1.152344 -4.121094 -2.207031 -4.121094 -3.164062 C -4.121094 -6.710938 2.972656 -14.09375 5.273438 -16.394531 C 7.667969 -18.792969 12.367188 -23.585938 16.105469 -23.585938 C 17.160156 -23.585938 18.023438 -22.722656 18.023438 -21.667969 Z M 18.023438 -21.667969 "/></g></g></g><g fill="#b76e79" fill-opacity="1"><g transform="translate(1.81396, 78.744708)"><g><path d="M 98.460938 -68.261719 C 98.460938 -70.464844 96.542969 -72.191406 94.433594 -72.191406 C 87.722656 -72.191406 79.285156 -64.234375 75.355469 -59.34375 C 72.382812 -55.703125 69.796875 -51.675781 67.304688 -47.746094 C 63.179688 -41.320312 59.25 -34.707031 55.414062 -28.089844 C 45.636719 -23.585938 37.390625 -19.941406 26.460938 -19.941406 C 22.050781 -19.941406 16.875 -20.996094 13.328125 -23.679688 C 9.585938 -26.460938 8.4375 -29.242188 7.765625 -33.746094 C 12.75 -31.445312 17.832031 -30.488281 23.296875 -30.488281 C 28.472656 -30.488281 33.652344 -31.542969 38.539062 -33.269531 C 48.800781 -36.816406 64.234375 -46.976562 64.234375 -59.25 C 64.234375 -67.207031 55.414062 -69.796875 48.894531 -69.796875 C 43.144531 -69.796875 37.390625 -68.742188 32.023438 -66.726562 C 19.75 -62.03125 6.328125 -50.523438 6.039062 -36.433594 C 3.257812 -39.210938 1.628906 -41.609375 1.628906 -45.636719 C 1.628906 -50.910156 5.464844 -57.332031 9.683594 -60.398438 C 9.875 -60.589844 10.257812 -60.785156 10.257812 -61.070312 C 10.257812 -61.261719 10.066406 -61.453125 9.875 -61.453125 C 7.957031 -61.453125 4.121094 -56.375 3.164062 -54.839844 C 1.4375 -51.964844 0.289062 -49.183594 0.289062 -45.828125 C 0.289062 -40.746094 2.589844 -37.773438 6.230469 -34.515625 C 7.863281 -22.339844 15.914062 -18.597656 27.324219 -18.597656 C 37.101562 -18.597656 45.347656 -21.953125 54.167969 -25.695312 C 49.664062 -17.351562 44.867188 -10.164062 36.527344 -5.273438 C 30.96875 -6.710938 25.40625 -8.148438 19.652344 -8.148438 C 17.257812 -8.148438 9.683594 -7.476562 9.683594 -3.835938 C 9.683594 -0.765625 16.011719 0 18.121094 0 C 23.96875 0 29.625 -1.4375 35.183594 -2.875 C 38.734375 -1.054688 42.28125 0.765625 45.921875 2.589844 C 50.429688 4.792969 58.769531 9.492188 64.042969 9.492188 C 67.496094 9.492188 71.042969 8.339844 73.824219 6.230469 C 74.300781 5.847656 76.507812 4.21875 76.507812 3.355469 C 76.507812 3.066406 76.316406 2.875 76.027344 2.875 C 75.644531 2.972656 75.355469 3.257812 75.070312 3.453125 C 73.246094 4.699219 71.042969 5.367188 68.742188 5.367188 C 65.863281 5.367188 60.113281 3.164062 57.429688 2.109375 C 51.292969 -0.289062 45.15625 -2.492188 38.828125 -4.507812 C 51.101562 -11.792969 58.578125 -20.230469 65.578125 -32.597656 C 73.152344 -37.871094 80.339844 -43.144531 86.667969 -49.949219 C 90.214844 -53.6875 98.460938 -62.699219 98.460938 -68.261719 Z M 96.925781 -68.261719 C 96.925781 -63.085938 89.929688 -55.511719 86.765625 -51.964844 C 81.011719 -45.539062 74.300781 -40.554688 67.304688 -35.570312 C 71.234375 -43.910156 76.125 -54.933594 81.875 -62.222656 C 84.558594 -65.578125 89.738281 -70.753906 94.433594 -70.753906 C 95.777344 -70.753906 96.925781 -69.605469 96.925781 -68.261719 Z M 62.894531 -59.25 C 62.894531 -47.839844 47.839844 -38.253906 38.445312 -34.800781 C 33.363281 -32.980469 27.996094 -31.828125 22.53125 -31.828125 C 17.640625 -31.828125 12.078125 -33.269531 7.667969 -35.378906 C 7.667969 -55.511719 31.0625 -68.453125 48.992188 -68.453125 C 54.742188 -68.453125 62.894531 -66.441406 62.894531 -59.25 Z M 32.40625 -3.738281 C 27.226562 -2.011719 24.542969 -1.535156 19.078125 -1.535156 C 17.542969 -1.535156 11.3125 -1.726562 11.3125 -4.027344 C 11.3125 -6.039062 16.777344 -6.710938 18.121094 -6.710938 C 22.433594 -6.710938 28.28125 -5.175781 32.40625 -3.738281 Z M 32.40625 -3.738281 "/></g></g></g><g fill="#b76e79" fill-opacity="1"><g transform="translate(83.397385, 78.744708)"><g><path d="M 29.144531 -17.066406 C 29.144531 -17.351562 28.859375 -17.449219 28.667969 -17.449219 C 28.378906 -17.449219 26.75 -15.914062 26.460938 -15.628906 C 23.007812 -12.941406 20.324219 -12.078125 16.011719 -12.078125 C 17.640625 -14.765625 19.75 -18.121094 19.75 -21.378906 C 19.75 -24.0625 18.214844 -25.695312 15.53125 -25.695312 C 7.476562 -25.695312 -7.191406 -14.09375 -7.191406 -5.65625 C -7.191406 -2.78125 -4.890625 0 -1.917969 0 C 3.738281 0 11.410156 -6.902344 15.050781 -10.929688 C 16.203125 -10.738281 17.257812 -10.738281 18.40625 -10.738281 C 20.230469 -10.738281 23.871094 -12.367188 25.308594 -13.421875 C 25.980469 -13.902344 29.144531 -16.296875 29.144531 -17.066406 Z M 18.40625 -21.570312 C 18.40625 -17.929688 14.1875 -11.984375 11.695312 -9.492188 C 9.300781 -7.09375 2.492188 -1.4375 -1.152344 -1.4375 C -2.683594 -1.4375 -3.929688 -2.492188 -3.929688 -4.121094 C -3.929688 -6.519531 0 -11.121094 1.34375 -12.75 C 4.3125 -16.394531 10.929688 -23.777344 16.203125 -23.777344 C 17.449219 -23.777344 18.40625 -22.816406 18.40625 -21.570312 Z M 18.40625 -21.570312 "/></g></g></g><g fill="#b76e79" fill-opacity="1"><g transform="translate(108.130992, 78.744708)"><g><path d="M 23.871094 -16.96875 C 23.871094 -17.257812 23.585938 -17.449219 23.296875 -17.449219 C 22.433594 -17.449219 9.011719 -2.207031 4.027344 -2.207031 C 3.257812 -2.207031 2.683594 -2.78125 2.683594 -3.546875 C 2.683594 -8.917969 13.710938 -19.367188 16.875 -22.433594 C 17.160156 -22.722656 18.792969 -24.0625 18.792969 -24.542969 C 18.792969 -24.832031 18.3125 -25.214844 18.121094 -25.40625 C 16.296875 -24.925781 14.285156 -24.351562 12.464844 -24.351562 C 11.601562 -24.351562 10.738281 -24.640625 9.972656 -25.023438 C 10.832031 -25.886719 11.984375 -27.035156 11.984375 -28.378906 C 11.984375 -29.335938 11.503906 -30.488281 10.355469 -30.488281 C 7.957031 -30.488281 7.09375 -27.226562 7.09375 -25.308594 C 4.890625 -22.625 2.589844 -20.039062 0.0976562 -17.640625 C -0.0976562 -17.449219 -0.671875 -16.96875 -0.671875 -16.585938 C -0.671875 -16.296875 -0.480469 -16.105469 -0.191406 -16.105469 C 0.480469 -16.105469 6.617188 -22.914062 7.476562 -23.871094 C 8.339844 -23.203125 9.777344 -22.625 10.832031 -22.625 C 11.792969 -22.625 12.75 -22.722656 13.710938 -23.007812 C 9.394531 -19.460938 -1.4375 -10.832031 -1.4375 -4.699219 C -1.4375 -2.011719 0.0976562 -0.382812 2.78125 -0.382812 C 7.667969 -0.382812 17.351562 -10.164062 20.898438 -13.613281 C 21.285156 -13.996094 23.871094 -16.488281 23.871094 -16.96875 Z M 23.871094 -16.96875 "/></g></g></g><g fill="#b76e79" fill-opacity="1"><g transform="translate(127.591849, 78.744708)"><g><path d="M 25.597656 -17.066406 C 25.597656 -17.257812 25.40625 -17.449219 25.214844 -17.449219 C 24.542969 -17.449219 22.914062 -15.628906 22.433594 -15.148438 C 18.3125 -11.027344 7.285156 -1.628906 1.054688 -1.628906 C -1.054688 -1.628906 -2.492188 -3.066406 -2.492188 -5.175781 C -2.492188 -6.617188 -1.820312 -7.765625 -1.054688 -8.917969 C 4.410156 -10.738281 17.738281 -15.339844 17.738281 -22.53125 C 17.738281 -24.542969 15.820312 -25.40625 14.09375 -25.40625 C 9.683594 -25.40625 2.78125 -20.707031 0 -17.640625 C -2.683594 -14.765625 -5.847656 -10.832031 -5.847656 -6.710938 C -5.847656 -3.066406 -2.78125 0 0.863281 0 C 8.246094 0 21.1875 -11.792969 25.597656 -17.066406 Z M 15.820312 -22.816406 C 15.820312 -20.324219 12.847656 -17.449219 11.121094 -16.011719 C 7.863281 -13.328125 3.644531 -11.886719 -0.191406 -10.449219 C 2.109375 -13.996094 9.492188 -24.257812 14.1875 -24.257812 C 15.050781 -24.257812 15.820312 -23.777344 15.820312 -22.816406 Z M 15.820312 -22.816406 "/></g></g></g><g fill="#b76e79" fill-opacity="1"><g transform="translate(148.778351, 78.744708)"><g><path d="M -5.65625 -0.765625 L -0.289062 -1.054688 C 5.082031 -6.808594 9.394531 -13.710938 15.53125 -18.792969 C 17.066406 -20.039062 21.570312 -24.0625 23.777344 -24.0625 C 24.351562 -24.0625 24.832031 -23.585938 24.832031 -23.007812 C 24.832031 -19.941406 12.847656 -9.300781 12.847656 -4.121094 C 12.847656 -2.109375 14.667969 -0.289062 16.683594 -0.289062 C 23.394531 -0.289062 32.40625 -10.832031 36.816406 -15.4375 C 37.199219 -15.820312 38.253906 -16.777344 38.253906 -17.257812 C 38.253906 -17.449219 38.15625 -17.832031 37.871094 -17.832031 C 37.007812 -17.832031 23.679688 -2.109375 18.3125 -2.109375 C 17.351562 -2.109375 16.96875 -2.683594 16.96875 -3.546875 C 16.96875 -8.054688 28.472656 -17.160156 28.472656 -22.53125 C 28.472656 -24.351562 27.035156 -25.597656 25.308594 -25.597656 C 20.996094 -25.597656 16.296875 -21.1875 13.132812 -18.597656 C 13.710938 -19.941406 14.382812 -21.285156 14.382812 -22.722656 C 14.382812 -24.640625 13.132812 -26.078125 11.21875 -26.078125 C 8.246094 -26.078125 7.285156 -24.832031 5.273438 -22.816406 C 4.027344 -21.570312 2.683594 -20.230469 1.4375 -18.984375 C 1.152344 -18.695312 -0.671875 -16.96875 -0.671875 -16.585938 C -0.671875 -16.394531 -0.574219 -16.105469 -0.289062 -16.105469 C 0.957031 -16.105469 7.285156 -24.257812 9.972656 -24.257812 C 10.738281 -24.257812 11.121094 -23.585938 11.121094 -22.914062 C 11.121094 -20.898438 6.136719 -15.148438 4.984375 -13.710938 Z M -5.65625 -0.765625 "/></g></g></g><g fill="#b76e79" fill-opacity="1"><g transform="translate(182.427702, 78.744708)"><g><path d="M 19.75 -21.761719 C 19.847656 -22.050781 19.941406 -22.433594 19.941406 -22.722656 C 19.941406 -24.449219 17.640625 -24.925781 16.296875 -24.925781 C 8.054688 -24.925781 -7.765625 -14.1875 -7.765625 -5.273438 C -7.765625 -2.109375 -5.367188 0 -2.300781 0 C 1.34375 0 5.753906 -4.507812 8.246094 -6.808594 C 7.863281 -5.65625 7.382812 -4.21875 7.382812 -3.066406 C 7.382812 -0.957031 9.109375 0 11.027344 0 C 16.683594 0 26.269531 -8.722656 30.105469 -12.464844 C 30.773438 -13.039062 34.324219 -16.203125 34.324219 -16.96875 C 34.324219 -17.257812 34.226562 -17.449219 33.9375 -17.449219 C 33.460938 -17.449219 17.542969 -1.628906 12.65625 -1.628906 C 11.984375 -1.628906 11.121094 -2.011719 11.121094 -2.875 C 11.121094 -4.027344 14.09375 -7.957031 14.859375 -8.917969 L 27.324219 -24.640625 L 21.859375 -24.351562 Z M 18.023438 -21.667969 C 18.023438 -17.351562 1.820312 -1.152344 -2.300781 -1.152344 C -3.257812 -1.152344 -4.121094 -2.207031 -4.121094 -3.164062 C -4.121094 -6.710938 2.972656 -14.09375 5.273438 -16.394531 C 7.667969 -18.792969 12.367188 -23.585938 16.105469 -23.585938 C 17.160156 -23.585938 18.023438 -22.722656 18.023438 -21.667969 Z M 18.023438 -21.667969 "/></g></g></g></g></g><g transform="matrix(1, 0, 0, 1, 121, 95)"><g clip-path="url(#a900d2d7b7)"><g fill="#000000" fill-opacity="0.4"><g transform="translate(1.54179, 18.975504)"><g><path d="M 10.984375 -3.71875 L 3.234375 -3.71875 L 1.5625 0 L 0.046875 0 L 6.40625 -13.90625 L 7.84375 -13.90625 L 14.203125 0 L 12.65625 0 Z M 10.453125 -4.90625 L 7.109375 -12.375 L 3.78125 -4.90625 Z M 10.453125 -4.90625 "/></g></g></g><g fill="#000000" fill-opacity="0.4"><g transform="translate(20.275115, 18.975504)"><g><path d="M 7.875 0.125 C 6.070312 0.125 4.664062 -0.390625 3.65625 -1.421875 C 2.644531 -2.460938 2.140625 -3.96875 2.140625 -5.9375 L 2.140625 -13.90625 L 3.625 -13.90625 L 3.625 -6 C 3.625 -4.382812 3.984375 -3.175781 4.703125 -2.375 C 5.429688 -1.582031 6.488281 -1.1875 7.875 -1.1875 C 9.257812 -1.1875 10.316406 -1.582031 11.046875 -2.375 C 11.773438 -3.175781 12.140625 -4.382812 12.140625 -6 L 12.140625 -13.90625 L 13.578125 -13.90625 L 13.578125 -5.9375 C 13.578125 -3.96875 13.078125 -2.460938 12.078125 -1.421875 C 11.078125 -0.390625 9.675781 0.125 7.875 0.125 Z M 7.875 0.125 "/></g></g></g><g fill="#000000" fill-opacity="0.4"><g transform="translate(40.497755, 18.975504)"><g/></g></g><g fill="#000000" fill-opacity="0.4"><g transform="translate(50.196038, 18.975504)"><g><path d="M 16.71875 -13.90625 L 16.71875 0 L 15.296875 0 L 15.296875 -11.125 L 9.84375 -1.765625 L 9.140625 -1.765625 L 3.671875 -11.078125 L 3.671875 0 L 2.265625 0 L 2.265625 -13.90625 L 3.484375 -13.90625 L 9.515625 -3.59375 L 15.5 -13.90625 Z M 16.71875 -13.90625 "/></g></g></g><g fill="#000000" fill-opacity="0.4"><g transform="translate(73.655394, 18.975504)"><g><path d="M 8.34375 0.125 C 6.96875 0.125 5.71875 -0.179688 4.59375 -0.796875 C 3.476562 -1.421875 2.601562 -2.269531 1.96875 -3.34375 C 1.34375 -4.414062 1.03125 -5.617188 1.03125 -6.953125 C 1.03125 -8.296875 1.34375 -9.503906 1.96875 -10.578125 C 2.601562 -11.648438 3.476562 -12.492188 4.59375 -13.109375 C 5.71875 -13.722656 6.96875 -14.03125 8.34375 -14.03125 C 9.726562 -14.03125 10.972656 -13.722656 12.078125 -13.109375 C 13.179688 -12.503906 14.050781 -11.660156 14.6875 -10.578125 C 15.320312 -9.503906 15.640625 -8.296875 15.640625 -6.953125 C 15.640625 -5.617188 15.320312 -4.410156 14.6875 -3.328125 C 14.050781 -2.242188 13.179688 -1.394531 12.078125 -0.78125 C 10.972656 -0.175781 9.726562 0.125 8.34375 0.125 Z M 8.34375 -1.1875 C 9.445312 -1.1875 10.441406 -1.4375 11.328125 -1.9375 C 12.210938 -2.4375 12.90625 -3.125 13.40625 -4 C 13.914062 -4.882812 14.171875 -5.867188 14.171875 -6.953125 C 14.171875 -8.046875 13.914062 -9.03125 13.40625 -9.90625 C 12.90625 -10.789062 12.210938 -11.476562 11.328125 -11.96875 C 10.441406 -12.46875 9.445312 -12.71875 8.34375 -12.71875 C 7.25 -12.71875 6.253906 -12.46875 5.359375 -11.96875 C 4.460938 -11.476562 3.757812 -10.789062 3.25 -9.90625 C 2.738281 -9.03125 2.484375 -8.046875 2.484375 -6.953125 C 2.484375 -5.867188 2.738281 -4.882812 3.25 -4 C 3.757812 -3.125 4.460938 -2.4375 5.359375 -1.9375 C 6.253906 -1.4375 7.25 -1.1875 8.34375 -1.1875 Z M 8.34375 -1.1875 "/></g></g></g><g fill="#000000" fill-opacity="0.4"><g transform="translate(94.811322, 18.975504)"><g><path d="M 4.96875 -12.640625 L 0.078125 -12.640625 L 0.078125 -13.90625 L 11.328125 -13.90625 L 11.328125 -12.640625 L 6.4375 -12.640625 L 6.4375 0 L 4.96875 0 Z M 4.96875 -12.640625 "/></g></g></g><g fill="#000000" fill-opacity="0.4"><g transform="translate(110.705072, 18.975504)"><g/></g></g><g fill="#000000" fill-opacity="0.4"><g transform="translate(120.403355, 18.975504)"><g><path d="M 3.75 0.125 C 2.957031 0.125 2.222656 -0.046875 1.546875 -0.390625 C 0.867188 -0.742188 0.320312 -1.238281 -0.09375 -1.875 L 0.78125 -2.859375 C 1.539062 -1.722656 2.539062 -1.15625 3.78125 -1.15625 C 5.5 -1.15625 6.359375 -2.175781 6.359375 -4.21875 L 6.359375 -12.640625 L 1.265625 -12.640625 L 1.265625 -13.90625 L 7.8125 -13.90625 L 7.8125 -4.265625 C 7.8125 -2.816406 7.46875 -1.722656 6.78125 -0.984375 C 6.101562 -0.242188 5.09375 0.125 3.75 0.125 Z M 3.75 0.125 "/></g></g></g><g fill="#000000" fill-opacity="0.4"><g transform="translate(134.847523, 18.975504)"><g><path d="M 7.875 0.125 C 6.070312 0.125 4.664062 -0.390625 3.65625 -1.421875 C 2.644531 -2.460938 2.140625 -3.96875 2.140625 -5.9375 L 2.140625 -13.90625 L 3.625 -13.90625 L 3.625 -6 C 3.625 -4.382812 3.984375 -3.175781 4.703125 -2.375 C 5.429688 -1.582031 6.488281 -1.1875 7.875 -1.1875 C 9.257812 -1.1875 10.316406 -1.582031 11.046875 -2.375 C 11.773438 -3.175781 12.140625 -4.382812 12.140625 -6 L 12.140625 -13.90625 L 13.578125 -13.90625 L 13.578125 -5.9375 C 13.578125 -3.96875 13.078125 -2.460938 12.078125 -1.421875 C 11.078125 -0.390625 9.675781 0.125 7.875 0.125 Z M 7.875 0.125 "/></g></g></g><g fill="#000000" fill-opacity="0.4"><g transform="translate(155.070163, 18.975504)"><g><path d="M 6.109375 0.125 C 5.066406 0.125 4.070312 -0.0390625 3.125 -0.375 C 2.175781 -0.707031 1.445312 -1.144531 0.9375 -1.6875 L 1.515625 -2.828125 C 2.015625 -2.316406 2.679688 -1.90625 3.515625 -1.59375 C 4.347656 -1.289062 5.210938 -1.140625 6.109375 -1.140625 C 7.347656 -1.140625 8.28125 -1.363281 8.90625 -1.8125 C 9.53125 -2.269531 9.84375 -2.863281 9.84375 -3.59375 C 9.84375 -4.15625 9.671875 -4.597656 9.328125 -4.921875 C 8.992188 -5.253906 8.582031 -5.507812 8.09375 -5.6875 C 7.601562 -5.875 6.921875 -6.070312 6.046875 -6.28125 C 4.992188 -6.539062 4.15625 -6.789062 3.53125 -7.03125 C 2.914062 -7.28125 2.382812 -7.65625 1.9375 -8.15625 C 1.488281 -8.664062 1.265625 -9.351562 1.265625 -10.21875 C 1.265625 -10.914062 1.453125 -11.550781 1.828125 -12.125 C 2.203125 -12.707031 2.769531 -13.171875 3.53125 -13.515625 C 4.300781 -13.859375 5.257812 -14.03125 6.40625 -14.03125 C 7.195312 -14.03125 7.972656 -13.921875 8.734375 -13.703125 C 9.492188 -13.484375 10.15625 -13.179688 10.71875 -12.796875 L 10.21875 -11.625 C 9.632812 -12.007812 9.007812 -12.296875 8.34375 -12.484375 C 7.6875 -12.679688 7.039062 -12.78125 6.40625 -12.78125 C 5.1875 -12.78125 4.265625 -12.546875 3.640625 -12.078125 C 3.023438 -11.609375 2.71875 -11 2.71875 -10.25 C 2.71875 -9.695312 2.882812 -9.25 3.21875 -8.90625 C 3.5625 -8.570312 3.988281 -8.316406 4.5 -8.140625 C 5.007812 -7.960938 5.695312 -7.765625 6.5625 -7.546875 C 7.582031 -7.296875 8.40625 -7.046875 9.03125 -6.796875 C 9.664062 -6.554688 10.195312 -6.1875 10.625 -5.6875 C 11.0625 -5.195312 11.28125 -4.523438 11.28125 -3.671875 C 11.28125 -2.972656 11.09375 -2.332031 10.71875 -1.75 C 10.34375 -1.175781 9.765625 -0.71875 8.984375 -0.375 C 8.203125 -0.0390625 7.242188 0.125 6.109375 0.125 Z M 6.109375 0.125 "/></g></g></g><g fill="#000000" fill-opacity="0.4"><g transform="translate(171.77805, 18.975504)"><g><path d="M 4.96875 -12.640625 L 0.078125 -12.640625 L 0.078125 -13.90625 L 11.328125 -13.90625 L 11.328125 -12.640625 L 6.4375 -12.640625 L 6.4375 0 L 4.96875 0 Z M 4.96875 -12.640625 "/></g></g></g><g fill="#000000" fill-opacity="0.4"><g transform="translate(187.6718, 18.975504)"><g><path d="M 12.109375 -1.265625 L 12.109375 0 L 2.265625 0 L 2.265625 -13.90625 L 11.8125 -13.90625 L 11.8125 -12.640625 L 3.734375 -12.640625 L 3.734375 -7.6875 L 10.9375 -7.6875 L 10.9375 -6.4375 L 3.734375 -6.4375 L 3.734375 -1.265625 Z M 12.109375 -1.265625 "/></g></g></g><g fill="#000000" fill-opacity="1"><g transform="translate(1.031898, 18.465612)"><g><path d="M 10.984375 -3.71875 L 3.234375 -3.71875 L 1.5625 0 L 0.046875 0 L 6.40625 -13.90625 L 7.84375 -13.90625 L 14.203125 0 L 12.65625 0 Z M 10.453125 -4.90625 L 7.109375 -12.375 L 3.78125 -4.90625 Z M 10.453125 -4.90625 "/></g></g></g><g fill="#000000" fill-opacity="1"><g transform="translate(19.765223, 18.465612)"><g><path d="M 7.875 0.125 C 6.070312 0.125 4.664062 -0.390625 3.65625 -1.421875 C 2.644531 -2.460938 2.140625 -3.96875 2.140625 -5.9375 L 2.140625 -13.90625 L 3.625 -13.90625 L 3.625 -6 C 3.625 -4.382812 3.984375 -3.175781 4.703125 -2.375 C 5.429688 -1.582031 6.488281 -1.1875 7.875 -1.1875 C 9.257812 -1.1875 10.316406 -1.582031 11.046875 -2.375 C 11.773438 -3.175781 12.140625 -4.382812 12.140625 -6 L 12.140625 -13.90625 L 13.578125 -13.90625 L 13.578125 -5.9375 C 13.578125 -3.96875 13.078125 -2.460938 12.078125 -1.421875 C 11.078125 -0.390625 9.675781 0.125 7.875 0.125 Z M 7.875 0.125 "/></g></g></g><g fill="#000000" fill-opacity="1"><g transform="translate(39.987863, 18.465612)"><g/></g></g><g fill="#000000" fill-opacity="1"><g transform="translate(49.686146, 18.465612)"><g><path d="M 16.71875 -13.90625 L 16.71875 0 L 15.296875 0 L 15.296875 -11.125 L 9.84375 -1.765625 L 9.140625 -1.765625 L 3.671875 -11.078125 L 3.671875 0 L 2.265625 0 L 2.265625 -13.90625 L 3.484375 -13.90625 L 9.515625 -3.59375 L 15.5 -13.90625 Z M 16.71875 -13.90625 "/></g></g></g><g fill="#000000" fill-opacity="1"><g transform="translate(73.145501, 18.465612)"><g><path d="M 8.34375 0.125 C 6.96875 0.125 5.71875 -0.179688 4.59375 -0.796875 C 3.476562 -1.421875 2.601562 -2.269531 1.96875 -3.34375 C 1.34375 -4.414062 1.03125 -5.617188 1.03125 -6.953125 C 1.03125 -8.296875 1.34375 -9.503906 1.96875 -10.578125 C 2.601562 -11.648438 3.476562 -12.492188 4.59375 -13.109375 C 5.71875 -13.722656 6.96875 -14.03125 8.34375 -14.03125 C 9.726562 -14.03125 10.972656 -13.722656 12.078125 -13.109375 C 13.179688 -12.503906 14.050781 -11.660156 14.6875 -10.578125 C 15.320312 -9.503906 15.640625 -8.296875 15.640625 -6.953125 C 15.640625 -5.617188 15.320312 -4.410156 14.6875 -3.328125 C 14.050781 -2.242188 13.179688 -1.394531 12.078125 -0.78125 C 10.972656 -0.175781 9.726562 0.125 8.34375 0.125 Z M 8.34375 -1.1875 C 9.445312 -1.1875 10.441406 -1.4375 11.328125 -1.9375 C 12.210938 -2.4375 12.90625 -3.125 13.40625 -4 C 13.914062 -4.882812 14.171875 -5.867188 14.171875 -6.953125 C 14.171875 -8.046875 13.914062 -9.03125 13.40625 -9.90625 C 12.90625 -10.789062 12.210938 -11.476562 11.328125 -11.96875 C 10.441406 -12.46875 9.445312 -12.71875 8.34375 -12.71875 C 7.25 -12.71875 6.253906 -12.46875 5.359375 -11.96875 C 4.460938 -11.476562 3.757812 -10.789062 3.25 -9.90625 C 2.738281 -9.03125 2.484375 -8.046875 2.484375 -6.953125 C 2.484375 -5.867188 2.738281 -4.882812 3.25 -4 C 3.757812 -3.125 4.460938 -2.4375 5.359375 -1.9375 C 6.253906 -1.4375 7.25 -1.1875 8.34375 -1.1875 Z M 8.34375 -1.1875 "/></g></g></g><g fill="#000000" fill-opacity="1"><g transform="translate(94.301429, 18.465612)"><g><path d="M 4.96875 -12.640625 L 0.078125 -12.640625 L 0.078125 -13.90625 L 11.328125 -13.90625 L 11.328125 -12.640625 L 6.4375 -12.640625 L 6.4375 0 L 4.96875 0 Z M 4.96875 -12.640625 "/></g></g></g><g fill="#000000" fill-opacity="1"><g transform="translate(110.195179, 18.465612)"><g/></g></g><g fill="#000000" fill-opacity="1"><g transform="translate(119.893463, 18.465612)"><g><path d="M 3.75 0.125 C 2.957031 0.125 2.222656 -0.046875 1.546875 -0.390625 C 0.867188 -0.742188 0.320312 -1.238281 -0.09375 -1.875 L 0.78125 -2.859375 C 1.539062 -1.722656 2.539062 -1.15625 3.78125 -1.15625 C 5.5 -1.15625 6.359375 -2.175781 6.359375 -4.21875 L 6.359375 -12.640625 L 1.265625 -12.640625 L 1.265625 -13.90625 L 7.8125 -13.90625 L 7.8125 -4.265625 C 7.8125 -2.816406 7.46875 -1.722656 6.78125 -0.984375 C 6.101562 -0.242188 5.09375 0.125 3.75 0.125 Z M 3.75 0.125 "/></g></g></g><g fill="#000000" fill-opacity="1"><g transform="translate(134.337631, 18.465612)"><g><path d="M 7.875 0.125 C 6.070312 0.125 4.664062 -0.390625 3.65625 -1.421875 C 2.644531 -2.460938 2.140625 -3.96875 2.140625 -5.9375 L 2.140625 -13.90625 L 3.625 -13.90625 L 3.625 -6 C 3.625 -4.382812 3.984375 -3.175781 4.703125 -2.375 C 5.429688 -1.582031 6.488281 -1.1875 7.875 -1.1875 C 9.257812 -1.1875 10.316406 -1.582031 11.046875 -2.375 C 11.773438 -3.175781 12.140625 -4.382812 12.140625 -6 L 12.140625 -13.90625 L 13.578125 -13.90625 L 13.578125 -5.9375 C 13.578125 -3.96875 13.078125 -2.460938 12.078125 -1.421875 C 11.078125 -0.390625 9.675781 0.125 7.875 0.125 Z M 7.875 0.125 "/></g></g></g><g fill="#000000" fill-opacity="1"><g transform="translate(154.560271, 18.465612)"><g><path d="M 6.109375 0.125 C 5.066406 0.125 4.070312 -0.0390625 3.125 -0.375 C 2.175781 -0.707031 1.445312 -1.144531 0.9375 -1.6875 L 1.515625 -2.828125 C 2.015625 -2.316406 2.679688 -1.90625 3.515625 -1.59375 C 4.347656 -1.289062 5.210938 -1.140625 6.109375 -1.140625 C 7.347656 -1.140625 8.28125 -1.363281 8.90625 -1.8125 C 9.53125 -2.269531 9.84375 -2.863281 9.84375 -3.59375 C 9.84375 -4.15625 9.671875 -4.597656 9.328125 -4.921875 C 8.992188 -5.253906 8.582031 -5.507812 8.09375 -5.6875 C 7.601562 -5.875 6.921875 -6.070312 6.046875 -6.28125 C 4.992188 -6.539062 4.15625 -6.789062 3.53125 -7.03125 C 2.914062 -7.28125 2.382812 -7.65625 1.9375 -8.15625 C 1.488281 -8.664062 1.265625 -9.351562 1.265625 -10.21875 C 1.265625 -10.914062 1.453125 -11.550781 1.828125 -12.125 C 2.203125 -12.707031 2.769531 -13.171875 3.53125 -13.515625 C 4.300781 -13.859375 5.257812 -14.03125 6.40625 -14.03125 C 7.195312 -14.03125 7.972656 -13.921875 8.734375 -13.703125 C 9.492188 -13.484375 10.15625 -13.179688 10.71875 -12.796875 L 10.21875 -11.625 C 9.632812 -12.007812 9.007812 -12.296875 8.34375 -12.484375 C 7.6875 -12.679688 7.039062 -12.78125 6.40625 -12.78125 C 5.1875 -12.78125 4.265625 -12.546875 3.640625 -12.078125 C 3.023438 -11.609375 2.71875 -11 2.71875 -10.25 C 2.71875 -9.695312 2.882812 -9.25 3.21875 -8.90625 C 3.5625 -8.570312 3.988281 -8.316406 4.5 -8.140625 C 5.007812 -7.960938 5.695312 -7.765625 6.5625 -7.546875 C 7.582031 -7.296875 8.40625 -7.046875 9.03125 -6.796875 C 9.664062 -6.554688 10.195312 -6.1875 10.625 -5.6875 C 11.0625 -5.195312 11.28125 -4.523438 11.28125 -3.671875 C 11.28125 -2.972656 11.09375 -2.332031 10.71875 -1.75 C 10.34375 -1.175781 9.765625 -0.71875 8.984375 -0.375 C 8.203125 -0.0390625 7.242188 0.125 6.109375 0.125 Z M 6.109375 0.125 "/></g></g></g><g fill="#000000" fill-opacity="1"><g transform="translate(171.268157, 18.465612)"><g><path d="M 4.96875 -12.640625 L 0.078125 -12.640625 L 0.078125 -13.90625 L 11.328125 -13.90625 L 11.328125 -12.640625 L 6.4375 -12.640625 L 6.4375 0 L 4.96875 0 Z M 4.96875 -12.640625 "/></g></g></g><g fill="#000000" fill-opacity="1"><g transform="translate(187.161907, 18.465612)"><g><path d="M 12.109375 -1.265625 L 12.109375 0 L 2.265625 0 L 2.265625 -13.90625 L 11.8125 -13.90625 L 11.8125 -12.640625 L 3.734375 -12.640625 L 3.734375 -7.6875 L 10.9375 -7.6875 L 10.9375 -6.4375 L 3.734375 -6.4375 L 3.734375 -1.265625 Z M 12.109375 -1.265625 "/></g></g></g></g></g></svg>