<svg xmlns="http://www.w3.org/2000/svg" xmlns:xlink="http://www.w3.org/1999/xlink" width="360" zoomAndPan="magnify" viewBox="0 0 270 112.499997" height="150" preserveAspectRatio="xMidYMid meet" version="1.0"><defs><g/><clipPath id="63486005b1"><path d="M 5 65 L 112.972656 65 L 112.972656 101 L 5 101 Z M 5 65 " clip-rule="nonzero"/></clipPath><clipPath id="5df6982f09"><path d="M 1.71875 6.339844 L 71 6.339844 L 71 96 L 1.71875 96 Z M 1.71875 6.339844 " clip-rule="nonzero"/></clipPath><clipPath id="2a13fef0e7"><path d="M 0.394531 1 L 64 1 L 64 61 L 0.394531 61 Z M 0.394531 1 " clip-rule="nonzero"/></clipPath><clipPath id="8fb4a2195a"><path d="M 160 27 L 204.6875 27 L 204.6875 61 L 160 61 Z M 160 27 " clip-rule="nonzero"/></clipPath><clipPath id="81db060a62"><rect x="0" width="205" y="0" height="90"/></clipPath><clipPath id="b5db198386"><path d="M 68 86 L 269.402344 86 L 269.402344 105 L 68 105 Z M 68 86 " clip-rule="nonzero"/></clipPath><clipPath id="b9ad11f7af"><rect x="0" width="202" y="0" height="19"/></clipPath></defs><g clip-path="url(#63486005b1)"><path fill="#000000" d="M 109.285156 68.101562 C 107.980469 67.375 106.570312 66.804688 105.089844 66.414062 C 104.351562 66.222656 103.59375 66.078125 102.828125 65.976562 L 102.753906 65.964844 L 102.683594 65.957031 L 102.539062 65.941406 C 102.441406 65.929688 102.347656 65.917969 102.25 65.910156 C 102.152344 65.898438 102.058594 65.890625 101.960938 65.882812 L 101.816406 65.871094 C 101.792969 65.867188 101.765625 65.867188 101.742188 65.863281 L 101.671875 65.859375 C 101.574219 65.855469 101.476562 65.847656 101.378906 65.84375 C 101.332031 65.839844 101.28125 65.835938 101.234375 65.835938 L 101.085938 65.828125 C 100.988281 65.824219 100.890625 65.820312 100.792969 65.816406 C 100.695312 65.816406 100.597656 65.8125 100.5 65.8125 C 100.109375 65.804688 99.71875 65.816406 99.324219 65.828125 C 99.226562 65.832031 99.128906 65.839844 99.03125 65.84375 L 98.734375 65.859375 C 98.636719 65.867188 98.539062 65.875 98.441406 65.882812 C 98.390625 65.886719 98.34375 65.890625 98.292969 65.894531 L 98.148438 65.90625 C 98.046875 65.917969 97.949219 65.925781 97.851562 65.9375 C 97.753906 65.945312 97.65625 65.957031 97.558594 65.96875 L 97.410156 65.988281 L 97.335938 65.996094 L 97.261719 66.007812 C 97.164062 66.019531 97.066406 66.03125 96.96875 66.046875 C 96.917969 66.054688 96.867188 66.058594 96.820312 66.066406 L 96.671875 66.089844 C 96.574219 66.105469 96.476562 66.121094 96.378906 66.136719 C 96.28125 66.152344 96.183594 66.171875 96.082031 66.1875 L 95.9375 66.214844 C 95.886719 66.222656 95.839844 66.230469 95.789062 66.238281 C 95.007812 66.390625 94.226562 66.570312 93.449219 66.78125 L 93.375 66.800781 L 93.304688 66.824219 L 93.160156 66.863281 C 93.0625 66.890625 92.964844 66.917969 92.867188 66.945312 C 92.769531 66.976562 92.675781 67.003906 92.578125 67.035156 C 92.480469 67.0625 92.386719 67.09375 92.289062 67.125 C 92.097656 67.183594 91.902344 67.246094 91.710938 67.3125 C 91.617188 67.34375 91.519531 67.375 91.421875 67.40625 C 91.328125 67.441406 91.230469 67.472656 91.136719 67.507812 C 90.753906 67.640625 90.371094 67.785156 89.992188 67.929688 C 89.894531 67.964844 89.800781 68.003906 89.707031 68.042969 C 89.613281 68.082031 89.515625 68.117188 89.421875 68.15625 C 89.328125 68.195312 89.234375 68.234375 89.136719 68.273438 L 88.855469 68.390625 C 88.101562 68.710938 87.351562 69.050781 86.609375 69.410156 C 85.867188 69.773438 85.132812 70.15625 84.402344 70.554688 L 84.128906 70.703125 C 84.039062 70.753906 83.949219 70.804688 83.855469 70.855469 C 83.765625 70.90625 83.675781 70.957031 83.585938 71.011719 C 83.492188 71.0625 83.402344 71.113281 83.3125 71.164062 C 83.222656 71.21875 83.132812 71.269531 83.039062 71.324219 C 82.949219 71.375 82.859375 71.429688 82.769531 71.480469 C 82.589844 71.585938 82.410156 71.695312 82.230469 71.800781 C 82.140625 71.851562 82.050781 71.90625 81.960938 71.960938 C 81.871094 72.015625 81.78125 72.070312 81.691406 72.125 C 81.601562 72.179688 81.511719 72.234375 81.421875 72.285156 C 81.332031 72.339844 81.246094 72.398438 81.15625 72.453125 C 80.976562 72.5625 80.796875 72.671875 80.617188 72.78125 C 80.4375 72.894531 80.261719 73.003906 80.082031 73.117188 L 79.949219 73.199219 L 79.8125 73.285156 C 79.726562 73.34375 79.636719 73.398438 79.546875 73.457031 C 79.457031 73.511719 79.367188 73.566406 79.277344 73.625 C 79.191406 73.683594 79.101562 73.738281 79.011719 73.796875 C 78.832031 73.910156 78.65625 74.027344 78.476562 74.140625 C 78.300781 74.257812 78.125 74.371094 77.945312 74.488281 C 75.101562 76.351562 72.285156 78.335938 69.449219 80.367188 C 66.613281 82.394531 63.757812 84.46875 60.824219 86.496094 C 60.089844 87.003906 59.355469 87.511719 58.609375 88.011719 C 57.867188 88.511719 57.121094 89.007812 56.363281 89.496094 C 56.175781 89.621094 55.984375 89.742188 55.796875 89.863281 C 55.605469 89.988281 55.417969 90.109375 55.226562 90.226562 C 55.035156 90.347656 54.84375 90.46875 54.652344 90.589844 C 54.460938 90.710938 54.269531 90.828125 54.078125 90.949219 C 53.308594 91.425781 52.535156 91.894531 51.75 92.355469 C 50.964844 92.8125 50.175781 93.261719 49.375 93.703125 C 48.574219 94.140625 47.765625 94.5625 46.945312 94.976562 C 46.128906 95.390625 45.300781 95.785156 44.464844 96.167969 C 44.046875 96.359375 43.625 96.542969 43.203125 96.726562 C 42.992188 96.816406 42.78125 96.90625 42.566406 96.996094 C 42.460938 97.042969 42.355469 97.085938 42.246094 97.128906 C 42.140625 97.171875 42.035156 97.214844 41.925781 97.257812 C 41.835938 97.296875 41.742188 97.332031 41.648438 97.371094 C 41.554688 97.40625 41.464844 97.445312 41.371094 97.480469 C 41.277344 97.515625 41.183594 97.554688 41.089844 97.589844 L 40.953125 97.644531 C 40.90625 97.664062 40.859375 97.679688 40.8125 97.699219 C 40.4375 97.835938 40.0625 97.980469 39.6875 98.109375 C 39.59375 98.144531 39.5 98.175781 39.40625 98.210938 L 39.265625 98.261719 L 39.125 98.308594 C 38.933594 98.371094 38.746094 98.4375 38.558594 98.5 C 38.511719 98.515625 38.464844 98.53125 38.417969 98.546875 L 38.273438 98.59375 C 38.179688 98.625 38.085938 98.652344 37.992188 98.683594 C 37.898438 98.714844 37.800781 98.746094 37.707031 98.777344 L 37.636719 98.796875 L 37.566406 98.820312 L 37.421875 98.863281 C 37.234375 98.921875 37.042969 98.976562 36.855469 99.035156 C 36.804688 99.050781 36.757812 99.0625 36.710938 99.078125 L 36.566406 99.117188 C 36.472656 99.144531 36.378906 99.171875 36.28125 99.199219 C 36.1875 99.226562 36.09375 99.253906 35.996094 99.28125 C 35.902344 99.304688 35.804688 99.332031 35.710938 99.355469 C 35.519531 99.40625 35.328125 99.457031 35.136719 99.507812 C 34.375 99.703125 33.613281 99.871094 32.851562 99.960938 C 32.472656 100.007812 32.09375 100.03125 31.71875 100.027344 C 31.34375 100.023438 30.96875 99.992188 30.605469 99.925781 C 30.558594 99.917969 30.511719 99.910156 30.46875 99.902344 L 30.402344 99.886719 L 30.367188 99.882812 L 30.335938 99.875 C 30.246094 99.855469 30.160156 99.832031 30.078125 99.804688 C 29.992188 99.78125 29.90625 99.75 29.824219 99.71875 C 29.742188 99.683594 29.660156 99.652344 29.582031 99.613281 C 29.503906 99.574219 29.425781 99.535156 29.351562 99.492188 L 29.324219 99.472656 L 29.296875 99.457031 L 29.238281 99.421875 C 29.203125 99.398438 29.167969 99.375 29.132812 99.351562 C 29.117188 99.335938 29.097656 99.324219 29.082031 99.3125 L 29.03125 99.273438 C 29.015625 99.261719 29 99.246094 28.984375 99.234375 L 28.960938 99.214844 C 28.953125 99.207031 28.945312 99.199219 28.9375 99.191406 C 28.875 99.136719 28.816406 99.078125 28.765625 99.019531 C 28.65625 98.898438 28.570312 98.765625 28.511719 98.628906 C 28.480469 98.5625 28.457031 98.492188 28.441406 98.417969 C 28.421875 98.347656 28.414062 98.273438 28.410156 98.199219 C 28.402344 98.050781 28.421875 97.898438 28.464844 97.746094 C 28.507812 97.59375 28.574219 97.4375 28.652344 97.285156 C 28.734375 97.128906 28.832031 96.976562 28.9375 96.828125 C 28.992188 96.75 29.046875 96.675781 29.105469 96.597656 C 29.132812 96.5625 29.160156 96.523438 29.191406 96.484375 L 29.277344 96.375 C 29.394531 96.226562 29.511719 96.082031 29.636719 95.9375 C 29.761719 95.792969 29.886719 95.648438 30.019531 95.507812 C 30.277344 95.226562 30.542969 94.953125 30.816406 94.679688 C 31.089844 94.40625 31.367188 94.136719 31.644531 93.871094 C 32.199219 93.332031 32.761719 92.800781 33.316406 92.257812 C 33.871094 91.714844 34.417969 91.164062 34.941406 90.585938 C 35.203125 90.296875 35.460938 90 35.707031 89.699219 C 35.765625 89.621094 35.828125 89.546875 35.890625 89.46875 L 35.980469 89.355469 L 36.070312 89.238281 C 36.128906 89.160156 36.183594 89.078125 36.242188 89 C 36.273438 88.960938 36.300781 88.921875 36.328125 88.882812 C 36.359375 88.839844 36.386719 88.800781 36.414062 88.761719 L 36.496094 88.640625 C 36.523438 88.597656 36.550781 88.558594 36.578125 88.515625 C 36.632812 88.433594 36.6875 88.351562 36.738281 88.265625 C 36.84375 88.101562 36.941406 87.929688 37.035156 87.753906 C 37.085938 87.667969 37.128906 87.582031 37.175781 87.492188 C 37.199219 87.449219 37.21875 87.402344 37.242188 87.359375 L 37.273438 87.292969 L 37.304688 87.222656 L 37.367188 87.085938 L 37.421875 86.949219 C 37.441406 86.902344 37.460938 86.855469 37.480469 86.808594 L 37.507812 86.738281 C 37.515625 86.714844 37.523438 86.691406 37.53125 86.667969 L 37.582031 86.527344 C 37.589844 86.503906 37.597656 86.480469 37.605469 86.457031 L 37.628906 86.382812 L 37.652344 86.3125 C 37.65625 86.289062 37.664062 86.265625 37.671875 86.242188 C 37.683594 86.191406 37.699219 86.144531 37.710938 86.09375 C 37.761719 85.898438 37.804688 85.703125 37.835938 85.5 C 37.863281 85.300781 37.882812 85.097656 37.886719 84.894531 C 37.894531 84.6875 37.882812 84.484375 37.859375 84.277344 C 37.8125 83.867188 37.691406 83.460938 37.503906 83.085938 C 37.410156 82.898438 37.300781 82.722656 37.179688 82.554688 C 37.054688 82.390625 36.917969 82.234375 36.769531 82.09375 C 36.476562 81.808594 36.144531 81.574219 35.792969 81.378906 C 35.445312 81.1875 35.078125 81.035156 34.703125 80.914062 C 34.519531 80.855469 34.328125 80.804688 34.140625 80.761719 C 34.046875 80.738281 33.949219 80.722656 33.855469 80.703125 L 33.710938 80.675781 C 33.664062 80.667969 33.617188 80.660156 33.566406 80.652344 C 33.375 80.625 33.183594 80.601562 32.992188 80.585938 C 32.800781 80.570312 32.605469 80.5625 32.414062 80.558594 C 32.222656 80.554688 32.03125 80.558594 31.839844 80.566406 C 31.644531 80.578125 31.453125 80.59375 31.265625 80.617188 C 30.882812 80.664062 30.503906 80.734375 30.132812 80.839844 L 29.992188 80.878906 C 29.945312 80.894531 29.898438 80.910156 29.855469 80.925781 C 29.832031 80.933594 29.808594 80.941406 29.785156 80.949219 L 29.71875 80.972656 L 29.589844 81.019531 L 29.324219 81.113281 C 29.28125 81.128906 29.238281 81.144531 29.191406 81.164062 L 29.0625 81.214844 C 28.714844 81.351562 28.371094 81.496094 28.035156 81.648438 C 27.695312 81.804688 27.363281 81.964844 27.035156 82.132812 C 26.953125 82.175781 26.871094 82.21875 26.789062 82.261719 C 26.707031 82.304688 26.625 82.347656 26.546875 82.390625 C 26.464844 82.433594 26.382812 82.476562 26.300781 82.519531 C 26.222656 82.5625 26.140625 82.609375 26.0625 82.65625 C 25.742188 82.832031 25.425781 83.015625 25.109375 83.203125 C 24.796875 83.390625 24.488281 83.582031 24.179688 83.773438 C 23.5625 84.15625 22.957031 84.546875 22.351562 84.933594 C 22.046875 85.128906 21.746094 85.320312 21.445312 85.511719 C 21.292969 85.605469 21.144531 85.703125 20.992188 85.796875 C 20.839844 85.890625 20.691406 85.984375 20.539062 86.082031 C 20.234375 86.269531 19.933594 86.457031 19.632812 86.648438 C 19.332031 86.839844 19.03125 87.03125 18.734375 87.21875 C 17.539062 87.984375 16.367188 88.761719 15.210938 89.550781 C 14.925781 89.746094 14.636719 89.941406 14.351562 90.140625 C 14.207031 90.238281 14.066406 90.339844 13.921875 90.4375 C 13.78125 90.539062 13.636719 90.636719 13.496094 90.734375 C 13.214844 90.9375 12.933594 91.136719 12.648438 91.335938 C 12.371094 91.535156 12.089844 91.738281 11.8125 91.9375 C 9.589844 93.554688 7.445312 95.203125 5.394531 96.886719 C 9.992188 93.289062 15.035156 89.824219 20.46875 86.558594 C 20.640625 86.453125 20.808594 86.351562 20.980469 86.25 C 21.152344 86.148438 21.320312 86.042969 21.492188 85.941406 C 21.832031 85.734375 22.171875 85.523438 22.511719 85.3125 C 23.195312 84.890625 23.875 84.464844 24.566406 84.054688 C 25.257812 83.640625 25.960938 83.238281 26.675781 82.863281 C 27.394531 82.488281 28.128906 82.140625 28.882812 81.839844 C 29.070312 81.765625 29.261719 81.695312 29.453125 81.625 L 29.597656 81.574219 C 29.644531 81.554688 29.691406 81.539062 29.742188 81.523438 L 29.886719 81.472656 L 29.957031 81.449219 C 29.980469 81.441406 30.003906 81.433594 30.027344 81.425781 C 30.40625 81.308594 30.796875 81.226562 31.195312 81.175781 C 31.59375 81.125 32 81.109375 32.402344 81.121094 C 32.804688 81.132812 33.207031 81.171875 33.605469 81.246094 C 34 81.316406 34.390625 81.421875 34.765625 81.5625 C 35.140625 81.707031 35.5 81.886719 35.824219 82.109375 C 36.148438 82.332031 36.441406 82.601562 36.667969 82.910156 C 36.785156 83.066406 36.882812 83.234375 36.964844 83.40625 C 37.046875 83.582031 37.109375 83.765625 37.15625 83.953125 C 37.199219 84.140625 37.230469 84.332031 37.238281 84.527344 C 37.25 84.722656 37.246094 84.921875 37.226562 85.117188 C 37.207031 85.316406 37.175781 85.515625 37.128906 85.710938 C 37.085938 85.90625 37.03125 86.101562 36.964844 86.292969 C 36.898438 86.484375 36.820312 86.675781 36.734375 86.863281 L 36.671875 87 L 36.601562 87.136719 C 36.582031 87.183594 36.554688 87.230469 36.53125 87.277344 L 36.496094 87.34375 C 36.484375 87.367188 36.46875 87.390625 36.457031 87.414062 C 36.359375 87.59375 36.25 87.769531 36.136719 87.945312 C 36.027344 88.121094 35.90625 88.292969 35.785156 88.464844 C 35.292969 89.144531 34.734375 89.785156 34.144531 90.40625 C 33.554688 91.027344 32.933594 91.628906 32.304688 92.226562 C 31.675781 92.824219 31.03125 93.421875 30.402344 94.039062 C 30.242188 94.195312 30.085938 94.351562 29.929688 94.507812 C 29.773438 94.667969 29.621094 94.828125 29.46875 94.992188 C 29.316406 95.15625 29.164062 95.324219 29.015625 95.492188 C 28.871094 95.664062 28.722656 95.839844 28.585938 96.019531 C 28.445312 96.199219 28.308594 96.382812 28.179688 96.582031 C 28.050781 96.777344 27.929688 96.988281 27.832031 97.222656 C 27.78125 97.335938 27.738281 97.457031 27.707031 97.585938 C 27.691406 97.648438 27.675781 97.710938 27.664062 97.777344 C 27.652344 97.84375 27.644531 97.910156 27.640625 97.976562 C 27.632812 98.042969 27.632812 98.113281 27.632812 98.179688 C 27.632812 98.214844 27.632812 98.246094 27.636719 98.28125 L 27.648438 98.382812 C 27.664062 98.519531 27.695312 98.652344 27.738281 98.78125 L 27.753906 98.832031 C 27.757812 98.847656 27.765625 98.863281 27.773438 98.878906 L 27.8125 98.972656 L 27.855469 99.0625 C 27.871094 99.09375 27.886719 99.121094 27.902344 99.152344 C 27.96875 99.269531 28.046875 99.378906 28.128906 99.480469 C 28.210938 99.578125 28.300781 99.671875 28.394531 99.757812 C 28.488281 99.84375 28.589844 99.925781 28.691406 99.996094 C 28.792969 100.070312 28.898438 100.136719 29.003906 100.199219 C 29.113281 100.261719 29.222656 100.316406 29.332031 100.367188 C 29.558594 100.46875 29.789062 100.550781 30.023438 100.613281 C 30.082031 100.628906 30.140625 100.640625 30.203125 100.65625 C 30.257812 100.667969 30.316406 100.679688 30.375 100.691406 C 30.433594 100.703125 30.492188 100.714844 30.550781 100.722656 L 30.683594 100.746094 L 30.726562 100.75 C 30.960938 100.785156 31.195312 100.804688 31.429688 100.816406 C 31.898438 100.839844 32.367188 100.820312 32.832031 100.773438 C 33.292969 100.722656 33.75 100.648438 34.203125 100.558594 C 34.425781 100.511719 34.652344 100.460938 34.875 100.410156 C 35.097656 100.355469 35.320312 100.300781 35.539062 100.242188 C 35.757812 100.183594 35.976562 100.128906 36.199219 100.070312 C 36.417969 100.007812 36.636719 99.945312 36.855469 99.882812 L 37.023438 99.839844 C 37.078125 99.820312 37.132812 99.804688 37.183594 99.789062 C 37.292969 99.757812 37.402344 99.722656 37.511719 99.691406 C 37.621094 99.65625 37.730469 99.625 37.84375 99.589844 C 37.949219 99.558594 38.058594 99.523438 38.167969 99.488281 C 38.277344 99.453125 38.386719 99.417969 38.496094 99.382812 C 38.605469 99.347656 38.714844 99.316406 38.820312 99.277344 C 39.039062 99.207031 39.257812 99.132812 39.472656 99.058594 C 39.527344 99.042969 39.582031 99.023438 39.636719 99.003906 L 39.796875 98.945312 C 39.90625 98.90625 40.015625 98.867188 40.121094 98.832031 C 40.339844 98.753906 40.554688 98.675781 40.769531 98.59375 C 40.875 98.554688 40.984375 98.515625 41.09375 98.472656 C 41.144531 98.453125 41.199219 98.433594 41.253906 98.414062 L 41.414062 98.351562 C 41.519531 98.308594 41.628906 98.265625 41.734375 98.226562 L 41.894531 98.164062 L 41.976562 98.132812 L 42.054688 98.097656 C 42.269531 98.011719 42.484375 97.925781 42.695312 97.839844 L 42.777344 97.808594 L 42.855469 97.773438 L 43.015625 97.707031 C 43.121094 97.660156 43.226562 97.617188 43.335938 97.570312 L 43.574219 97.472656 L 43.652344 97.4375 C 43.757812 97.390625 43.863281 97.34375 43.96875 97.296875 C 44.074219 97.25 44.179688 97.203125 44.289062 97.15625 L 44.367188 97.125 L 44.445312 97.085938 L 44.601562 97.015625 C 44.707031 96.96875 44.8125 96.921875 44.917969 96.871094 L 45.078125 96.800781 L 45.15625 96.765625 L 45.234375 96.726562 C 45.445312 96.628906 45.652344 96.53125 45.863281 96.433594 C 46.699219 96.03125 47.527344 95.617188 48.355469 95.1875 C 48.558594 95.078125 48.765625 94.972656 48.96875 94.863281 C 49.074219 94.808594 49.175781 94.75 49.277344 94.695312 C 49.378906 94.640625 49.484375 94.585938 49.585938 94.53125 C 49.6875 94.472656 49.789062 94.417969 49.890625 94.363281 C 49.992188 94.304688 50.09375 94.25 50.199219 94.191406 C 50.402344 94.078125 50.605469 93.96875 50.808594 93.851562 C 50.984375 93.75 51.160156 93.652344 51.335938 93.550781 C 51.511719 93.449219 51.683594 93.347656 51.859375 93.246094 L 52.382812 92.941406 C 52.554688 92.835938 52.730469 92.734375 52.902344 92.628906 C 53.246094 92.421875 53.59375 92.214844 53.933594 92 C 54.105469 91.898438 54.277344 91.792969 54.449219 91.683594 C 54.617188 91.578125 54.789062 91.472656 54.957031 91.367188 C 55.128906 91.257812 55.296875 91.152344 55.464844 91.042969 L 55.71875 90.882812 L 55.847656 90.800781 L 55.972656 90.71875 C 56.140625 90.609375 56.308594 90.5 56.476562 90.394531 C 56.5625 90.339844 56.644531 90.285156 56.730469 90.230469 C 56.8125 90.175781 56.894531 90.121094 56.980469 90.066406 C 57.3125 89.847656 57.644531 89.625 57.976562 89.40625 C 58.144531 89.292969 58.308594 89.183594 58.472656 89.070312 C 58.640625 88.960938 58.804688 88.851562 58.96875 88.738281 C 59.132812 88.625 59.296875 88.515625 59.460938 88.402344 C 59.625 88.289062 59.789062 88.175781 59.953125 88.066406 C 60.28125 87.839844 60.605469 87.613281 60.929688 87.390625 C 61.578125 86.933594 62.226562 86.480469 62.867188 86.023438 C 64.152344 85.113281 65.421875 84.195312 66.683594 83.277344 C 69.207031 81.445312 71.699219 79.617188 74.1875 77.855469 C 76.675781 76.089844 79.171875 74.390625 81.695312 72.8125 C 81.851562 72.714844 82.011719 72.617188 82.167969 72.515625 C 82.25 72.46875 82.328125 72.417969 82.40625 72.371094 C 82.484375 72.320312 82.566406 72.273438 82.644531 72.226562 C 82.800781 72.128906 82.960938 72.03125 83.117188 71.9375 C 83.277344 71.839844 83.4375 71.746094 83.59375 71.652344 C 84.230469 71.277344 84.871094 70.914062 85.515625 70.5625 C 86.808594 69.867188 88.117188 69.226562 89.449219 68.65625 C 90.777344 68.089844 92.128906 67.59375 93.5 67.191406 C 94.863281 66.789062 96.25 66.484375 97.644531 66.300781 C 98.339844 66.207031 99.035156 66.144531 99.730469 66.113281 L 99.796875 66.113281 L 99.863281 66.109375 L 99.992188 66.105469 C 100.082031 66.105469 100.167969 66.101562 100.253906 66.097656 C 100.339844 66.097656 100.429688 66.097656 100.515625 66.097656 C 100.601562 66.097656 100.6875 66.097656 100.773438 66.097656 C 100.863281 66.097656 100.949219 66.101562 101.035156 66.101562 L 101.164062 66.105469 C 101.207031 66.105469 101.25 66.105469 101.292969 66.109375 C 101.382812 66.113281 101.46875 66.113281 101.554688 66.117188 C 101.640625 66.125 101.726562 66.125 101.8125 66.132812 C 103.191406 66.214844 104.554688 66.445312 105.863281 66.824219 C 106.515625 67.015625 107.160156 67.242188 107.78125 67.503906 C 108.40625 67.765625 109.011719 68.0625 109.597656 68.386719 C 110.773438 69.042969 111.863281 69.820312 112.867188 70.679688 C 111.785156 69.707031 110.589844 68.828125 109.285156 68.101562 " fill-opacity="1" fill-rule="nonzero"/></g><g clip-path="url(#5df6982f09)"><path fill="#000000" d="M 50.4375 37.609375 C 50.4375 37.609375 43.019531 42.617188 35.964844 37.695312 C 35.964844 37.695312 44.648438 38.207031 50.4375 37.609375 Z M 43.117188 48.621094 C 42.945312 48.707031 42.695312 48.824219 42.375 48.964844 C 42.058594 49.101562 41.675781 49.261719 41.238281 49.425781 C 41.128906 49.46875 41.015625 49.511719 40.902344 49.550781 C 40.785156 49.59375 40.667969 49.636719 40.546875 49.683594 C 40.308594 49.769531 40.054688 49.855469 39.789062 49.9375 C 39.261719 50.105469 38.695312 50.261719 38.101562 50.394531 C 38.023438 50.410156 37.949219 50.425781 37.875 50.441406 C 37.800781 50.460938 37.726562 50.476562 37.648438 50.492188 C 37.5 50.523438 37.347656 50.550781 37.195312 50.578125 C 36.886719 50.632812 36.574219 50.679688 36.257812 50.714844 C 35.625 50.785156 34.976562 50.8125 34.328125 50.78125 C 33.683594 50.75 33.03125 50.660156 32.402344 50.488281 C 32.515625 50.464844 32.628906 50.4375 32.746094 50.410156 L 33.09375 50.335938 L 33.785156 50.183594 C 34.246094 50.085938 34.703125 49.988281 35.164062 49.890625 C 35.621094 49.796875 36.078125 49.703125 36.535156 49.613281 C 36.996094 49.523438 37.457031 49.4375 37.914062 49.355469 C 38.375 49.273438 38.832031 49.191406 39.285156 49.109375 L 39.96875 48.992188 C 40.082031 48.972656 40.195312 48.957031 40.3125 48.9375 L 40.652344 48.882812 C 41.566406 48.742188 42.476562 48.609375 43.378906 48.488281 C 43.378906 48.488281 43.285156 48.539062 43.117188 48.621094 Z M 5.539062 91.773438 C 5.386719 92.007812 5.066406 92.136719 4.761719 92.085938 C 4.257812 91.996094 4.003906 91.507812 4.253906 91.117188 C 4.410156 90.878906 4.726562 90.753906 5.03125 90.804688 C 5.535156 90.894531 5.792969 91.382812 5.539062 91.773438 Z M 70.554688 8.804688 C 70.542969 8.738281 70.511719 8.667969 70.460938 8.605469 C 70.40625 8.542969 70.335938 8.484375 70.246094 8.4375 C 69.714844 8.167969 69.164062 7.925781 68.589844 7.714844 L 68.484375 7.675781 C 68.449219 7.660156 68.410156 7.648438 68.371094 7.636719 L 67.917969 7.488281 C 67.878906 7.476562 67.84375 7.464844 67.804688 7.453125 L 67.695312 7.417969 C 67.542969 7.371094 67.394531 7.328125 67.242188 7.285156 C 67.09375 7.242188 66.945312 7.203125 66.796875 7.164062 C 65.609375 6.851562 64.425781 6.640625 63.246094 6.515625 C 62.066406 6.386719 60.894531 6.34375 59.726562 6.371094 C 59.4375 6.378906 59.144531 6.386719 58.855469 6.402344 C 58.570312 6.417969 58.28125 6.441406 57.992188 6.460938 C 57.699219 6.484375 57.417969 6.515625 57.128906 6.546875 L 56.699219 6.597656 L 56.484375 6.625 L 56.273438 6.65625 C 56.273438 6.65625 56.152344 6.667969 55.921875 6.707031 C 55.808594 6.726562 55.664062 6.753906 55.496094 6.789062 C 55.410156 6.804688 55.320312 6.824219 55.222656 6.847656 C 55.128906 6.871094 55.027344 6.898438 54.921875 6.925781 C 54.5 7.042969 53.972656 7.199219 53.394531 7.433594 C 53.246094 7.492188 53.097656 7.550781 52.941406 7.617188 C 52.863281 7.652344 52.785156 7.683594 52.707031 7.71875 C 52.628906 7.753906 52.550781 7.792969 52.46875 7.828125 C 52.148438 7.980469 51.816406 8.152344 51.464844 8.339844 C 51.125 8.53125 50.773438 8.742188 50.410156 8.976562 C 50.226562 9.089844 50.050781 9.214844 49.871094 9.34375 C 49.691406 9.472656 49.507812 9.609375 49.320312 9.746094 C 49.230469 9.816406 49.136719 9.890625 49.042969 9.960938 C 48.953125 10.035156 48.863281 10.109375 48.773438 10.1875 C 48.589844 10.339844 48.40625 10.5 48.222656 10.664062 C 48.128906 10.746094 48.039062 10.832031 47.945312 10.914062 C 47.921875 10.9375 47.898438 10.957031 47.875 10.980469 C 47.855469 11.003906 47.832031 11.023438 47.808594 11.046875 C 47.765625 11.089844 47.71875 11.132812 47.675781 11.179688 C 47.496094 11.359375 47.316406 11.542969 47.136719 11.730469 C 46.773438 12.109375 46.433594 12.523438 46.089844 12.953125 C 46.003906 13.0625 45.917969 13.171875 45.832031 13.285156 C 45.792969 13.339844 45.746094 13.394531 45.707031 13.449219 C 45.667969 13.507812 45.625 13.566406 45.585938 13.621094 C 45.421875 13.855469 45.261719 14.089844 45.101562 14.335938 C 45.023438 14.453125 44.945312 14.578125 44.867188 14.703125 C 44.828125 14.765625 44.789062 14.824219 44.75 14.890625 C 44.714844 14.953125 44.675781 15.015625 44.640625 15.082031 C 44.492188 15.339844 44.34375 15.601562 44.203125 15.871094 C 44.132812 16.007812 44.0625 16.140625 43.992188 16.28125 C 43.957031 16.347656 43.921875 16.417969 43.886719 16.488281 C 43.855469 16.558594 43.824219 16.628906 43.789062 16.699219 C 43.660156 16.980469 43.535156 17.273438 43.410156 17.566406 C 43.410156 17.566406 43.371094 17.460938 43.367188 17.199219 C 43.367188 17.066406 43.375 16.894531 43.402344 16.679688 C 43.417969 16.570312 43.433594 16.453125 43.460938 16.320312 C 43.472656 16.253906 43.484375 16.183594 43.5 16.109375 C 43.511719 16.074219 43.519531 16.039062 43.527344 16 C 43.535156 15.960938 43.546875 15.925781 43.554688 15.886719 C 43.640625 15.574219 43.753906 15.207031 43.914062 14.78125 C 43.992188 14.570312 44.082031 14.34375 44.1875 14.097656 C 44.296875 13.859375 44.417969 13.601562 44.554688 13.328125 C 44.691406 13.054688 44.84375 12.765625 45.015625 12.457031 C 45.191406 12.152344 45.386719 11.828125 45.601562 11.488281 C 45.707031 11.320312 45.820312 11.144531 45.9375 10.964844 C 46.0625 10.785156 46.191406 10.605469 46.324219 10.417969 C 46.457031 10.234375 46.597656 10.042969 46.742188 9.84375 C 46.816406 9.746094 46.890625 9.648438 46.96875 9.546875 C 47.046875 9.449219 47.128906 9.347656 47.210938 9.246094 L 46.914062 9.371094 C 46.867188 9.394531 46.820312 9.414062 46.769531 9.4375 L 46.628906 9.5 L 46.054688 9.765625 L 45.484375 10.035156 C 45.386719 10.082031 45.296875 10.128906 45.203125 10.175781 L 44.925781 10.316406 L 44.367188 10.605469 L 44.089844 10.75 L 43.953125 10.820312 C 43.90625 10.847656 43.859375 10.871094 43.816406 10.894531 C 43.457031 11.097656 43.097656 11.300781 42.738281 11.503906 L 42.46875 11.660156 L 42.332031 11.738281 L 42.203125 11.816406 L 41.679688 12.136719 L 41.160156 12.464844 C 40.988281 12.574219 40.8125 12.683594 40.644531 12.792969 C 40.308594 13.019531 39.972656 13.246094 39.640625 13.472656 L 39.386719 13.644531 L 39.261719 13.734375 L 39.140625 13.820312 L 38.65625 14.171875 C 36.066406 16.066406 33.722656 18.152344 31.609375 20.34375 C 31.566406 20.390625 31.523438 20.433594 31.480469 20.480469 L 31.355469 20.617188 C 31.273438 20.707031 31.191406 20.800781 31.109375 20.894531 C 30.945312 21.082031 30.789062 21.273438 30.632812 21.464844 C 30.476562 21.65625 30.328125 21.851562 30.183594 22.050781 C 30.144531 22.101562 30.109375 22.148438 30.074219 22.199219 L 29.972656 22.351562 C 29.902344 22.449219 29.835938 22.550781 29.769531 22.65625 C 29.507812 23.0625 29.257812 23.476562 29.03125 23.902344 L 28.945312 24.0625 C 28.917969 24.113281 28.894531 24.167969 28.867188 24.222656 C 28.816406 24.328125 28.765625 24.4375 28.714844 24.542969 C 28.613281 24.761719 28.519531 24.976562 28.429688 25.195312 C 28.339844 25.414062 28.253906 25.636719 28.171875 25.855469 C 28.132812 25.96875 28.09375 26.078125 28.054688 26.191406 C 28.039062 26.246094 28.019531 26.300781 28 26.355469 L 27.949219 26.523438 C 27.816406 26.972656 27.707031 27.425781 27.613281 27.878906 C 27.570312 28.105469 27.527344 28.332031 27.492188 28.5625 C 27.476562 28.675781 27.460938 28.789062 27.445312 28.902344 C 27.429688 29.015625 27.417969 29.132812 27.40625 29.246094 C 27.367188 29.703125 27.34375 30.160156 27.347656 30.617188 C 27.347656 30.894531 27.351562 31.167969 27.359375 31.433594 C 27.363281 31.566406 27.367188 31.699219 27.375 31.828125 C 27.378906 31.859375 27.378906 31.894531 27.378906 31.925781 C 27.382812 31.957031 27.386719 31.988281 27.386719 32.023438 C 27.390625 32.085938 27.398438 32.148438 27.402344 32.210938 C 27.445312 32.71875 27.503906 33.191406 27.582031 33.617188 C 27.738281 34.472656 27.976562 35.148438 28.304688 35.546875 C 28.304688 35.546875 28.207031 35.5 28.03125 35.328125 C 27.859375 35.160156 27.605469 34.867188 27.300781 34.371094 C 27 33.878906 26.640625 33.183594 26.261719 32.199219 C 26.164062 31.957031 26.070312 31.691406 25.972656 31.40625 C 25.875 31.125 25.773438 30.820312 25.683594 30.5 C 25.492188 29.851562 25.308594 29.125 25.125 28.296875 C 22.6875 31.816406 20.65625 35.40625 18.964844 38.9375 C 17.269531 42.46875 15.90625 45.945312 14.792969 49.257812 C 14.699219 49.539062 14.609375 49.816406 14.53125 50.101562 C 14.453125 50.382812 14.375 50.664062 14.316406 50.949219 C 14.195312 51.523438 14.105469 52.097656 14.042969 52.671875 C 14.011719 52.960938 13.988281 53.25 13.972656 53.539062 C 13.964844 53.683594 13.960938 53.828125 13.957031 53.972656 C 13.953125 54.046875 13.949219 54.117188 13.949219 54.1875 L 13.953125 54.40625 C 13.957031 54.984375 13.996094 55.5625 14.0625 56.136719 C 14.113281 56.585938 14.175781 57.027344 14.242188 57.441406 C 14.277344 57.652344 14.3125 57.855469 14.351562 58.050781 C 14.390625 58.246094 14.4375 58.4375 14.480469 58.617188 C 14.660156 59.34375 14.875 59.9375 15.128906 60.320312 C 15.128906 60.320312 14.847656 59.957031 14.402344 59.273438 C 14.179688 58.933594 13.917969 58.511719 13.625 58.015625 C 13.554688 57.894531 13.480469 57.765625 13.402344 57.632812 C 13.328125 57.496094 13.253906 57.359375 13.175781 57.21875 C 13.023438 56.933594 12.863281 56.628906 12.703125 56.308594 C 12.46875 57.179688 12.273438 58.03125 12.078125 58.867188 C 11.984375 59.28125 11.890625 59.691406 11.796875 60.097656 C 11.753906 60.300781 11.707031 60.503906 11.664062 60.703125 C 11.625 60.90625 11.582031 61.105469 11.542969 61.304688 C 11.382812 62.09375 11.230469 62.867188 11.089844 63.613281 C 11.054688 63.796875 11.019531 63.984375 10.988281 64.167969 C 10.976562 64.214844 10.96875 64.261719 10.960938 64.304688 C 10.953125 64.351562 10.945312 64.398438 10.9375 64.441406 C 10.921875 64.535156 10.90625 64.625 10.890625 64.714844 C 10.832031 65.078125 10.769531 65.433594 10.714844 65.785156 C 10.601562 66.480469 10.496094 67.15625 10.398438 67.804688 C 10.386719 67.882812 10.375 67.964844 10.363281 68.042969 C 10.351562 68.125 10.339844 68.203125 10.328125 68.285156 C 10.308594 68.441406 10.285156 68.597656 10.265625 68.753906 C 10.226562 69.066406 10.1875 69.367188 10.148438 69.664062 C 10.074219 70.257812 10.007812 70.820312 9.945312 71.355469 C 9.929688 71.488281 9.914062 71.621094 9.898438 71.75 C 9.886719 71.878906 9.871094 72.007812 9.859375 72.132812 C 9.835938 72.386719 9.8125 72.632812 9.789062 72.867188 C 9.785156 72.910156 9.777344 72.949219 9.761719 72.984375 L 9.105469 74.679688 L 8.777344 75.523438 L 8.695312 75.738281 L 8.613281 75.949219 L 8.457031 76.375 L 7.820312 78.074219 L 7.503906 78.921875 L 7.34375 79.347656 L 7.265625 79.558594 L 7.1875 79.773438 L 6.503906 81.675781 L 6.539062 81.6875 C 6.449219 81.929688 6.359375 82.175781 6.269531 82.421875 C 5.976562 83.230469 5.695312 84.03125 5.425781 84.824219 C 5.359375 85.019531 5.292969 85.21875 5.226562 85.414062 C 5.164062 85.613281 5.101562 85.808594 5.039062 86.003906 C 4.914062 86.394531 4.792969 86.785156 4.671875 87.167969 C 4.574219 87.484375 4.480469 87.792969 4.390625 88.101562 L 1.792969 95.667969 C 1.734375 95.835938 1.984375 95.957031 2.109375 95.820312 C 3.542969 94.261719 6.453125 92.363281 7.277344 91.84375 C 7.371094 91.78125 7.359375 91.652344 7.25 91.605469 C 6.527344 91.277344 5.96875 90.765625 5.546875 90.226562 C 6.496094 87.535156 7.433594 84.9375 8.363281 82.441406 L 8.382812 82.449219 L 9.035156 80.683594 C 9.195312 80.238281 9.367188 79.792969 9.535156 79.351562 L 10.046875 78.019531 L 10.554688 76.691406 C 10.636719 76.46875 10.726562 76.246094 10.8125 76.027344 L 11.078125 75.363281 L 11.601562 74.039062 L 11.867188 73.375 L 12.0625 72.878906 L 12.128906 72.714844 L 13.21875 70.074219 L 13.488281 69.414062 L 13.769531 68.757812 L 14.332031 67.441406 L 14.894531 66.128906 C 14.941406 66.019531 14.992188 65.910156 15.039062 65.800781 L 15.183594 65.476562 L 15.472656 64.820312 L 16.054688 63.511719 L 16.347656 62.859375 C 16.445312 62.640625 16.546875 62.425781 16.644531 62.210938 L 17.847656 59.609375 L 19.09375 57.019531 C 20.773438 53.578125 22.550781 50.171875 24.453125 46.816406 C 24.917969 45.972656 25.414062 45.144531 25.902344 44.308594 L 26.269531 43.683594 L 26.3125 43.605469 L 26.363281 43.527344 L 26.457031 43.375 L 26.644531 43.0625 L 27.402344 41.824219 L 27.59375 41.515625 C 27.65625 41.410156 27.71875 41.308594 27.785156 41.207031 L 28.175781 40.59375 L 28.957031 39.363281 L 29.054688 39.210938 L 29.105469 39.132812 L 29.15625 39.058594 L 29.355469 38.753906 L 29.761719 38.144531 L 30.164062 37.539062 L 30.46875 37.082031 C 30.5 37.03125 30.539062 36.980469 30.570312 36.929688 L 31.824219 35.125 C 31.964844 34.925781 32.109375 34.730469 32.253906 34.53125 L 33.117188 33.339844 L 33.222656 33.195312 L 33.335938 33.046875 L 33.558594 32.753906 L 34.003906 32.164062 L 34.449219 31.578125 L 34.558594 31.433594 C 34.597656 31.382812 34.636719 31.335938 34.675781 31.289062 L 34.902344 30.996094 L 35.824219 29.839844 C 35.863281 29.789062 35.898438 29.742188 35.941406 29.695312 L 36.058594 29.550781 L 36.296875 29.265625 L 36.769531 28.695312 L 37.246094 28.125 L 38.222656 27 L 38.46875 26.71875 C 38.511719 26.671875 38.550781 26.625 38.59375 26.582031 L 38.71875 26.441406 L 39.730469 25.339844 L 39.855469 25.199219 C 39.898438 25.152344 39.941406 25.109375 39.984375 25.0625 L 40.246094 24.792969 L 41.027344 23.980469 L 41.160156 23.84375 C 41.203125 23.800781 41.25 23.757812 41.292969 23.710938 L 41.832031 23.179688 C 43.265625 21.765625 44.769531 20.398438 46.367188 19.105469 L 46.261719 19.191406 C 46.226562 19.222656 46.191406 19.25 46.15625 19.28125 L 45.953125 19.457031 L 45.546875 19.8125 L 45.136719 20.167969 L 45.035156 20.257812 L 44.984375 20.304688 L 44.933594 20.347656 L 44.734375 20.53125 L 43.945312 21.257812 L 43.746094 21.441406 L 43.554688 21.628906 L 43.171875 22 L 42.785156 22.375 L 42.59375 22.5625 C 42.5625 22.59375 42.53125 22.625 42.5 22.65625 L 42.40625 22.75 L 41.664062 23.511719 L 41.292969 23.894531 C 41.167969 24.019531 41.050781 24.152344 40.929688 24.28125 L 40.210938 25.058594 C 38.308594 27.140625 36.542969 29.304688 34.886719 31.523438 C 33.230469 33.742188 31.679688 36.015625 30.207031 38.324219 L 29.65625 39.1875 L 29.382812 39.625 L 29.117188 40.0625 L 28.585938 40.933594 L 28.316406 41.371094 L 28.183594 41.589844 L 28.054688 41.808594 L 27.023438 43.574219 L 26.894531 43.792969 L 26.832031 43.902344 L 26.769531 44.015625 L 26.519531 44.457031 L 26.023438 45.347656 L 25.523438 46.234375 C 25.480469 46.308594 25.441406 46.382812 25.402344 46.457031 L 25.28125 46.683594 L 25.042969 47.128906 C 24.722656 47.726562 24.398438 48.320312 24.082031 48.917969 L 23.152344 50.722656 L 22.917969 51.171875 C 22.839844 51.324219 22.761719 51.472656 22.6875 51.625 L 21.789062 53.4375 L 21.566406 53.890625 L 21.453125 54.117188 L 21.34375 54.34375 L 20.476562 56.171875 L 20.042969 57.082031 L 19.625 58 L 18.785156 59.835938 L 18.679688 60.0625 C 18.644531 60.140625 18.613281 60.21875 18.578125 60.292969 L 18.378906 60.753906 L 17.570312 62.601562 C 17.433594 62.90625 17.296875 63.214844 17.167969 63.523438 L 16.386719 65.378906 L 15.996094 66.304688 C 15.929688 66.457031 15.871094 66.613281 15.804688 66.769531 L 15.617188 67.234375 L 14.863281 69.097656 L 14.675781 69.5625 L 14.582031 69.792969 L 14.492188 70.027344 L 14.125 70.960938 L 13.398438 72.832031 L 13.21875 73.296875 L 13.039062 73.769531 L 12.691406 74.707031 C 12.539062 75.105469 13.007812 75.46875 13.371094 75.242188 C 13.929688 74.890625 14.480469 74.542969 15.023438 74.191406 C 15.296875 74.019531 15.570312 73.847656 15.839844 73.675781 C 16.109375 73.503906 16.378906 73.332031 16.644531 73.160156 C 17.175781 72.816406 17.699219 72.472656 18.210938 72.132812 C 18.46875 71.960938 18.722656 71.792969 18.980469 71.625 C 19.234375 71.453125 19.488281 71.285156 19.742188 71.117188 C 20.246094 70.78125 20.742188 70.449219 21.226562 70.113281 C 21.472656 69.945312 21.710938 69.78125 21.953125 69.613281 C 22.195312 69.449219 22.429688 69.28125 22.667969 69.117188 C 23.625 68.460938 24.546875 67.808594 25.4375 67.160156 C 29.023438 64.574219 32.1875 62.097656 34.984375 59.710938 C 34.144531 59.789062 33.375 59.847656 32.675781 59.890625 C 31.980469 59.933594 31.359375 59.960938 30.796875 59.972656 C 29.675781 59.996094 28.808594 59.957031 28.15625 59.894531 C 27.5 59.832031 27.054688 59.742188 26.777344 59.667969 C 26.496094 59.59375 26.382812 59.535156 26.382812 59.535156 C 27.652344 59.945312 29.097656 59.859375 30.554688 59.515625 C 30.738281 59.472656 30.917969 59.425781 31.101562 59.375 C 31.191406 59.347656 31.285156 59.324219 31.375 59.296875 C 31.464844 59.269531 31.558594 59.242188 31.648438 59.214844 C 32.015625 59.101562 32.378906 58.972656 32.742188 58.839844 C 33.460938 58.570312 34.164062 58.261719 34.832031 57.941406 C 35 57.859375 35.164062 57.78125 35.328125 57.703125 C 35.492188 57.625 35.652344 57.542969 35.8125 57.464844 C 36.125 57.304688 36.429688 57.144531 36.722656 56.988281 C 37.011719 56.832031 37.285156 56.675781 37.546875 56.527344 C 37.804688 56.382812 38.046875 56.242188 38.273438 56.113281 C 39.179688 55.589844 39.777344 55.207031 39.910156 55.144531 C 39.925781 55.140625 39.941406 55.144531 39.953125 55.15625 C 39.96875 55.167969 39.992188 55.171875 40.007812 55.15625 C 42.398438 52.847656 44.449219 50.625 46.222656 48.484375 C 48 46.339844 49.496094 44.269531 50.78125 42.261719 C 50.863281 42.136719 50.941406 42.011719 51.019531 41.882812 C 51.097656 41.761719 51.175781 41.636719 51.253906 41.515625 C 51.410156 41.265625 51.5625 41.019531 51.707031 40.769531 C 51.746094 40.707031 51.78125 40.644531 51.816406 40.582031 L 51.871094 40.488281 L 51.925781 40.398438 C 52 40.277344 52.074219 40.15625 52.144531 40.03125 C 52.289062 39.789062 52.425781 39.542969 52.5625 39.296875 C 52.597656 39.234375 52.628906 39.171875 52.664062 39.113281 C 52.699219 39.050781 52.730469 38.992188 52.765625 38.933594 C 52.832031 38.8125 52.898438 38.691406 52.964844 38.570312 C 53.097656 38.332031 53.226562 38.089844 53.351562 37.84375 C 53.382812 37.78125 53.414062 37.722656 53.445312 37.664062 C 53.476562 37.605469 53.507812 37.546875 53.539062 37.488281 C 53.601562 37.367188 53.664062 37.25 53.726562 37.128906 C 53.785156 37.011719 53.847656 36.890625 53.90625 36.769531 C 53.933594 36.710938 53.964844 36.652344 53.992188 36.589844 C 54.023438 36.53125 54.050781 36.46875 54.082031 36.410156 C 55.019531 34.515625 55.820312 32.667969 56.558594 30.855469 C 56.285156 30.867188 56.011719 30.882812 55.75 30.894531 C 55.480469 30.914062 55.21875 30.933594 54.964844 30.953125 C 54.835938 30.964844 54.707031 30.972656 54.582031 30.984375 C 54.519531 30.988281 54.453125 30.992188 54.390625 31 C 54.359375 31 54.328125 31.003906 54.296875 31.003906 C 54.265625 31.007812 54.234375 31.011719 54.203125 31.015625 C 53.953125 31.039062 53.710938 31.0625 53.472656 31.089844 C 53.234375 31.113281 52.996094 31.132812 52.769531 31.15625 C 52.738281 31.160156 52.710938 31.164062 52.683594 31.164062 C 52.652344 31.167969 52.625 31.171875 52.597656 31.175781 C 52.539062 31.183594 52.484375 31.191406 52.429688 31.195312 C 52.316406 31.210938 52.203125 31.222656 52.09375 31.234375 C 51.875 31.261719 51.660156 31.285156 51.449219 31.3125 C 51.34375 31.320312 51.238281 31.335938 51.136719 31.34375 C 51.082031 31.351562 51.03125 31.355469 50.980469 31.363281 C 50.929688 31.367188 50.878906 31.375 50.832031 31.382812 C 50.429688 31.433594 50.050781 31.480469 49.683594 31.523438 C 49.503906 31.546875 49.324219 31.566406 49.152344 31.585938 C 49.066406 31.59375 48.984375 31.605469 48.898438 31.617188 C 48.816406 31.628906 48.734375 31.636719 48.65625 31.648438 C 48.332031 31.6875 48.027344 31.722656 47.738281 31.753906 C 47.59375 31.769531 47.457031 31.785156 47.320312 31.796875 C 47.253906 31.804688 47.1875 31.808594 47.125 31.816406 C 47.058594 31.824219 46.996094 31.828125 46.933594 31.835938 C 45.9375 31.941406 45.226562 31.972656 44.769531 31.972656 C 44.710938 31.972656 44.660156 31.972656 44.609375 31.972656 C 44.558594 31.972656 44.515625 31.972656 44.472656 31.972656 C 44.390625 31.972656 44.320312 31.96875 44.269531 31.964844 C 44.160156 31.960938 44.109375 31.953125 44.109375 31.953125 C 44.199219 31.945312 44.292969 31.9375 44.386719 31.925781 C 44.433594 31.921875 44.480469 31.914062 44.527344 31.910156 C 44.574219 31.902344 44.621094 31.894531 44.671875 31.890625 C 44.863281 31.863281 45.0625 31.828125 45.265625 31.785156 C 45.667969 31.699219 46.089844 31.589844 46.523438 31.453125 C 46.574219 31.433594 46.628906 31.417969 46.6875 31.402344 C 46.742188 31.386719 46.796875 31.367188 46.851562 31.351562 C 46.960938 31.316406 47.074219 31.28125 47.1875 31.246094 C 47.410156 31.171875 47.636719 31.089844 47.863281 31.007812 C 48.3125 30.835938 48.785156 30.667969 49.253906 30.480469 C 49.371094 30.433594 49.488281 30.386719 49.605469 30.335938 C 49.664062 30.3125 49.71875 30.289062 49.78125 30.265625 L 49.867188 30.226562 L 49.957031 30.195312 C 50.195312 30.101562 50.429688 30.003906 50.667969 29.90625 C 50.785156 29.859375 50.902344 29.808594 51.019531 29.761719 L 51.195312 29.683594 L 51.28125 29.648438 C 51.3125 29.632812 51.339844 29.625 51.371094 29.613281 C 51.609375 29.515625 51.84375 29.421875 52.074219 29.324219 C 52.191406 29.277344 52.308594 29.226562 52.421875 29.179688 C 52.480469 29.152344 52.539062 29.128906 52.59375 29.105469 C 52.652344 29.078125 52.710938 29.058594 52.769531 29.035156 C 53 28.945312 53.226562 28.851562 53.449219 28.757812 C 53.5625 28.710938 53.675781 28.664062 53.785156 28.621094 L 53.949219 28.550781 C 54.003906 28.53125 54.0625 28.507812 54.117188 28.488281 C 54.335938 28.402344 54.550781 28.316406 54.761719 28.234375 C 55.042969 28.117188 55.316406 28.003906 55.574219 27.867188 C 55.707031 27.800781 55.832031 27.730469 55.957031 27.65625 L 56.144531 27.546875 C 56.203125 27.507812 56.265625 27.472656 56.324219 27.433594 C 56.445312 27.355469 56.5625 27.273438 56.675781 27.191406 C 56.734375 27.148438 56.789062 27.105469 56.84375 27.058594 L 56.929688 26.992188 L 57.011719 26.929688 C 57.230469 26.753906 57.4375 26.566406 57.636719 26.359375 C 58.429688 25.5625 59.0625 24.589844 59.5625 23.433594 C 59.660156 23.207031 59.757812 22.980469 59.855469 22.753906 C 59.957031 22.53125 60.058594 22.308594 60.15625 22.085938 C 60.210938 21.976562 60.261719 21.863281 60.3125 21.753906 C 60.363281 21.644531 60.414062 21.535156 60.464844 21.425781 C 60.570312 21.207031 60.671875 20.988281 60.777344 20.769531 C 60.886719 20.554688 60.992188 20.34375 61.101562 20.128906 C 61.125 20.078125 61.152344 20.023438 61.179688 19.96875 C 61.207031 19.917969 61.234375 19.863281 61.261719 19.8125 C 61.316406 19.707031 61.371094 19.601562 61.425781 19.5 C 61.484375 19.394531 61.539062 19.289062 61.59375 19.183594 C 61.621094 19.132812 61.648438 19.082031 61.675781 19.027344 L 61.71875 18.949219 L 61.761719 18.875 C 61.878906 18.667969 61.992188 18.46875 62.105469 18.265625 C 62.21875 18.0625 62.335938 17.867188 62.453125 17.671875 C 62.515625 17.574219 62.574219 17.472656 62.632812 17.375 C 62.664062 17.328125 62.691406 17.277344 62.722656 17.230469 C 62.75 17.179688 62.78125 17.132812 62.8125 17.085938 C 62.933594 16.894531 63.054688 16.707031 63.175781 16.519531 C 63.207031 16.472656 63.238281 16.425781 63.269531 16.378906 C 63.300781 16.332031 63.332031 16.285156 63.359375 16.242188 C 63.425781 16.148438 63.484375 16.058594 63.546875 15.96875 C 63.609375 15.875 63.671875 15.785156 63.734375 15.695312 C 63.765625 15.652344 63.796875 15.605469 63.828125 15.5625 C 63.859375 15.519531 63.890625 15.472656 63.921875 15.429688 C 64.050781 15.257812 64.179688 15.082031 64.304688 14.910156 C 64.367188 14.824219 64.433594 14.742188 64.496094 14.660156 C 64.5625 14.574219 64.628906 14.492188 64.691406 14.410156 C 64.757812 14.328125 64.820312 14.246094 64.886719 14.167969 C 64.949219 14.085938 65.015625 14.007812 65.082031 13.929688 C 65.210938 13.773438 65.339844 13.617188 65.472656 13.464844 C 65.601562 13.316406 65.734375 13.167969 65.863281 13.023438 C 65.929688 12.953125 65.996094 12.878906 66.058594 12.808594 C 66.125 12.742188 66.191406 12.671875 66.257812 12.601562 C 66.386719 12.46875 66.519531 12.332031 66.648438 12.203125 C 66.910156 11.949219 67.164062 11.699219 67.421875 11.472656 C 67.488281 11.414062 67.550781 11.359375 67.613281 11.300781 C 67.675781 11.246094 67.738281 11.191406 67.800781 11.140625 C 67.929688 11.03125 68.050781 10.929688 68.175781 10.832031 C 69.132812 10.039062 69.917969 9.492188 70.394531 9.167969 C 70.527344 9.074219 70.582031 8.941406 70.554688 8.804688 " fill-opacity="1" fill-rule="nonzero"/></g><g transform="matrix(1, 0, 0, 1, 64, 4)"><g clip-path="url(#81db060a62)"><g clip-path="url(#2a13fef0e7)"><g fill="#000000" fill-opacity="1"><g transform="translate(1.428987, 60.863761)"><g><path d="M 8.984375 -0.0625 C 6.484375 -0.144531 4.53125 -0.726562 3.125 -1.8125 C 1.707031 -2.851562 0.707031 -4.203125 0.125 -5.859375 C -0.5 -7.523438 -0.75 -9.378906 -0.625 -11.421875 C -0.5 -13.410156 -0.0625 -15.40625 0.6875 -17.40625 C 1.226562 -18.863281 1.914062 -20.28125 2.75 -21.65625 C 3.582031 -22.976562 4.515625 -24.160156 5.546875 -25.203125 C 6.585938 -26.242188 7.734375 -27.117188 8.984375 -27.828125 C 10.191406 -28.492188 11.484375 -28.890625 12.859375 -29.015625 C 13.972656 -29.140625 15.03125 -29.097656 16.03125 -28.890625 C 16.988281 -28.640625 17.90625 -28.285156 18.78125 -27.828125 C 19.65625 -27.328125 20.488281 -26.765625 21.28125 -26.140625 C 22.0625 -25.472656 22.828125 -24.765625 23.578125 -24.015625 C 25.367188 -25.515625 27.242188 -27.328125 29.203125 -29.453125 C 31.148438 -31.523438 33.125 -33.707031 35.125 -36 C 37.125 -38.289062 39.117188 -40.578125 41.109375 -42.859375 C 43.109375 -45.109375 45.085938 -47.1875 47.046875 -49.09375 C 48.992188 -50.96875 50.863281 -52.570312 52.65625 -53.90625 C 54.445312 -55.195312 56.15625 -56.007812 57.78125 -56.34375 C 56.613281 -56.46875 55.257812 -56.445312 53.71875 -56.28125 C 52.132812 -56.113281 50.472656 -55.84375 48.734375 -55.46875 C 46.984375 -55.050781 45.234375 -54.53125 43.484375 -53.90625 C 41.691406 -53.28125 40.007812 -52.550781 38.4375 -51.71875 C 36.851562 -50.882812 35.4375 -49.988281 34.1875 -49.03125 C 32.9375 -48.082031 31.976562 -47.066406 31.3125 -45.984375 C 30.695312 -44.984375 30.390625 -43.878906 30.390625 -42.671875 C 30.347656 -41.460938 30.800781 -40.132812 31.75 -38.6875 C 30.425781 -38.1875 29.328125 -38.019531 28.453125 -38.1875 C 27.578125 -38.351562 26.910156 -38.707031 26.453125 -39.25 C 25.992188 -39.789062 25.703125 -40.453125 25.578125 -41.234375 C 25.453125 -42.023438 25.472656 -42.816406 25.640625 -43.609375 C 25.929688 -45.148438 26.597656 -46.585938 27.640625 -47.921875 C 28.679688 -49.242188 29.945312 -50.46875 31.4375 -51.59375 C 32.9375 -52.675781 34.601562 -53.65625 36.4375 -54.53125 C 38.269531 -55.363281 40.160156 -56.09375 42.109375 -56.71875 C 44.066406 -57.34375 45.984375 -57.835938 47.859375 -58.203125 C 49.679688 -58.535156 51.382812 -58.765625 52.96875 -58.890625 C 54.550781 -58.972656 55.90625 -58.929688 57.03125 -58.765625 C 58.144531 -58.597656 58.929688 -58.289062 59.390625 -57.84375 C 59.722656 -57.46875 59.828125 -56.96875 59.703125 -56.34375 C 57.796875 -55.46875 55.90625 -54.15625 54.03125 -52.40625 C 52.15625 -50.613281 50.285156 -48.597656 48.421875 -46.359375 C 46.546875 -44.066406 44.734375 -41.65625 42.984375 -39.125 C 41.191406 -36.539062 39.507812 -33.957031 37.9375 -31.375 C 36.3125 -28.800781 34.8125 -26.367188 33.4375 -24.078125 C 32.726562 -22.910156 32.0625 -21.832031 31.4375 -20.84375 C 30.78125 -19.800781 30.160156 -18.863281 29.578125 -18.03125 L 29.453125 -17.84375 C 30.984375 -16.382812 32.707031 -15.21875 34.625 -14.34375 C 36.5 -13.4375 38.410156 -12.835938 40.359375 -12.546875 C 42.316406 -12.253906 44.191406 -12.273438 45.984375 -12.609375 C 47.773438 -12.941406 49.375 -13.582031 50.78125 -14.53125 C 52.195312 -15.488281 53.363281 -16.78125 54.28125 -18.40625 C 55.15625 -20.03125 55.613281 -21.984375 55.65625 -24.265625 L 55.78125 -24.390625 C 57.769531 -22.898438 59.304688 -21.238281 60.390625 -19.40625 C 61.429688 -17.53125 62.035156 -15.65625 62.203125 -13.78125 C 62.367188 -11.914062 62.140625 -10.128906 61.515625 -8.421875 C 60.847656 -6.671875 59.847656 -5.175781 58.515625 -3.9375 C 57.191406 -2.644531 55.53125 -1.664062 53.53125 -1 C 51.53125 -0.332031 49.265625 -0.125 46.734375 -0.375 C 44.734375 -0.582031 42.921875 -1.019531 41.296875 -1.6875 C 39.640625 -2.3125 38.082031 -3.125 36.625 -4.125 C 35.164062 -5.070312 33.8125 -6.171875 32.5625 -7.421875 C 31.28125 -8.671875 30.054688 -9.984375 28.890625 -11.359375 C 28.679688 -11.566406 28.492188 -11.796875 28.328125 -12.046875 C 28.160156 -12.253906 27.992188 -12.460938 27.828125 -12.671875 C 27.617188 -12.878906 27.429688 -13.109375 27.265625 -13.359375 C 27.097656 -13.554688 26.929688 -13.757812 26.765625 -13.96875 C 25.390625 -11.976562 23.992188 -10.148438 22.578125 -8.484375 C 21.128906 -6.773438 19.675781 -5.300781 18.21875 -4.0625 C 16.71875 -2.769531 15.195312 -1.769531 13.65625 -1.0625 C 12.125 -0.351562 10.566406 -0.0195312 8.984375 -0.0625 Z M 11.796875 -19.59375 C 13.203125 -19.382812 14.71875 -19.507812 16.34375 -19.96875 C 17.132812 -20.175781 17.90625 -20.445312 18.65625 -20.78125 C 19.363281 -21.070312 19.988281 -21.40625 20.53125 -21.78125 C 20.28125 -22.269531 19.882812 -22.804688 19.34375 -23.390625 C 18.800781 -23.929688 18.175781 -24.453125 17.46875 -24.953125 C 16.757812 -25.410156 16.03125 -25.804688 15.28125 -26.140625 C 14.488281 -26.472656 13.722656 -26.679688 12.984375 -26.765625 C 11.773438 -26.890625 10.796875 -26.597656 10.046875 -25.890625 C 9.296875 -25.179688 8.835938 -24.347656 8.671875 -23.390625 C 8.546875 -22.566406 8.734375 -21.78125 9.234375 -21.03125 C 9.691406 -20.28125 10.546875 -19.820312 11.796875 -19.65625 Z M 11.796875 -19.59375 "/></g></g></g></g><g fill="#000000" fill-opacity="1"><g transform="translate(57.126895, 60.863761)"><g><path d="M 2.1875 0.0625 C 0.976562 -0.226562 -0.0820312 -0.894531 -1 -1.9375 C -1.914062 -2.9375 -2.3125 -4.429688 -2.1875 -6.421875 C -2.101562 -7.585938 -1.851562 -8.816406 -1.4375 -10.109375 C -1.0625 -11.398438 -0.582031 -12.664062 0 -13.90625 C 0.582031 -15.113281 1.207031 -16.257812 1.875 -17.34375 C 2.539062 -18.425781 3.1875 -19.34375 3.8125 -20.09375 C 5.21875 -21.832031 6.773438 -23.453125 8.484375 -24.953125 C 10.148438 -26.453125 11.875 -27.785156 13.65625 -28.953125 C 15.40625 -30.078125 17.15625 -30.96875 18.90625 -31.625 C 20.65625 -32.289062 22.316406 -32.601562 23.890625 -32.5625 C 24.472656 -32.5625 24.992188 -32.414062 25.453125 -32.125 C 25.910156 -31.789062 26.265625 -31.378906 26.515625 -30.890625 C 26.890625 -30.179688 26.953125 -29.367188 26.703125 -28.453125 C 26.453125 -27.535156 25.660156 -26.742188 24.328125 -26.078125 C 24.578125 -26.953125 24.640625 -27.703125 24.515625 -28.328125 C 24.347656 -28.910156 24.035156 -29.347656 23.578125 -29.640625 C 22.671875 -30.179688 21.425781 -30.015625 19.84375 -29.140625 C 17.84375 -27.929688 16.050781 -26.578125 14.46875 -25.078125 C 12.894531 -23.535156 11.566406 -21.957031 10.484375 -20.34375 C 9.316406 -18.59375 8.460938 -17.03125 7.921875 -15.65625 C 7.378906 -14.238281 7.128906 -13.015625 7.171875 -11.984375 C 7.171875 -10.941406 7.441406 -10.128906 7.984375 -9.546875 C 8.484375 -8.921875 9.191406 -8.566406 10.109375 -8.484375 C 11.109375 -8.398438 12.289062 -8.609375 13.65625 -9.109375 C 15.03125 -9.609375 16.59375 -10.503906 18.34375 -11.796875 C 17.96875 -12.867188 17.925781 -14.195312 18.21875 -15.78125 C 18.507812 -17.363281 19.007812 -18.84375 19.71875 -20.21875 C 20.300781 -21.425781 20.988281 -22.421875 21.78125 -23.203125 C 22.5625 -23.992188 23.328125 -24.304688 24.078125 -24.140625 C 24.703125 -24.015625 24.953125 -23.226562 24.828125 -21.78125 C 24.703125 -20.40625 24.222656 -18.71875 23.390625 -16.71875 C 23.179688 -16.21875 22.953125 -15.71875 22.703125 -15.21875 C 22.453125 -14.71875 22.164062 -14.21875 21.84375 -13.71875 C 21.925781 -12.894531 22.316406 -12.609375 23.015625 -12.859375 C 23.722656 -13.109375 24.535156 -13.5625 25.453125 -14.21875 C 26.328125 -14.882812 27.179688 -15.59375 28.015625 -16.34375 C 28.429688 -16.71875 28.765625 -17.03125 29.015625 -17.28125 C 29.222656 -17.53125 29.367188 -17.695312 29.453125 -17.78125 L 29.515625 -17.65625 C 29.347656 -17.15625 29.054688 -16.550781 28.640625 -15.84375 C 28.222656 -15.09375 27.722656 -14.34375 27.140625 -13.59375 C 26.515625 -12.8125 25.867188 -12.066406 25.203125 -11.359375 C 24.535156 -10.648438 23.847656 -10.109375 23.140625 -9.734375 C 22.484375 -9.316406 21.800781 -9.109375 21.09375 -9.109375 C 20.425781 -9.109375 19.84375 -9.421875 19.34375 -10.046875 C 18.382812 -8.460938 17.195312 -7.003906 15.78125 -5.671875 C 14.363281 -4.347656 12.867188 -3.207031 11.296875 -2.25 C 9.671875 -1.289062 8.066406 -0.601562 6.484375 -0.1875 C 4.910156 0.269531 3.476562 0.351562 2.1875 0.0625 Z M 2.1875 0.0625 "/></g></g></g><g fill="#000000" fill-opacity="1"><g transform="translate(80.577757, 60.863761)"><g><path d="M 9.859375 -22.703125 C 10.316406 -23.492188 10.691406 -24.222656 10.984375 -24.890625 C 11.273438 -25.554688 11.441406 -26.203125 11.484375 -26.828125 C 11.523438 -27.453125 11.441406 -28.078125 11.234375 -28.703125 C 10.984375 -29.328125 10.609375 -30.035156 10.109375 -30.828125 C 11.691406 -31.773438 13.0625 -32.414062 14.21875 -32.75 C 15.34375 -33.039062 16.257812 -33.082031 16.96875 -32.875 C 17.925781 -32.582031 18.550781 -31.921875 18.84375 -30.890625 C 19.09375 -29.847656 19.050781 -28.597656 18.71875 -27.140625 C 19.425781 -27.722656 20.28125 -28.410156 21.28125 -29.203125 C 22.226562 -29.992188 23.265625 -30.71875 24.390625 -31.375 C 25.472656 -32 26.597656 -32.476562 27.765625 -32.8125 C 28.890625 -33.144531 29.953125 -33.144531 30.953125 -32.8125 C 31.984375 -32.4375 32.726562 -31.796875 33.1875 -30.890625 C 33.644531 -29.929688 33.894531 -28.867188 33.9375 -27.703125 C 33.9375 -26.535156 33.75 -25.328125 33.375 -24.078125 C 33 -22.835938 32.457031 -21.71875 31.75 -20.71875 C 31.050781 -19.675781 30.222656 -18.863281 29.265625 -18.28125 C 28.304688 -17.65625 27.265625 -17.40625 26.140625 -17.53125 C 25.679688 -17.570312 25.242188 -17.695312 24.828125 -17.90625 C 24.367188 -18.070312 23.992188 -18.363281 23.703125 -18.78125 C 23.410156 -19.195312 23.265625 -19.738281 23.265625 -20.40625 C 23.222656 -21.03125 23.390625 -21.816406 23.765625 -22.765625 C 24.429688 -22.398438 25.140625 -22.234375 25.890625 -22.265625 C 26.597656 -22.265625 27.265625 -22.390625 27.890625 -22.640625 C 28.515625 -22.890625 29.054688 -23.265625 29.515625 -23.765625 C 29.929688 -24.222656 30.140625 -24.742188 30.140625 -25.328125 C 30.179688 -26.578125 30.015625 -27.472656 29.640625 -28.015625 C 29.222656 -28.554688 28.660156 -28.847656 27.953125 -28.890625 C 27.242188 -28.890625 26.492188 -28.722656 25.703125 -28.390625 C 24.867188 -28.015625 24.035156 -27.578125 23.203125 -27.078125 C 22.378906 -26.578125 21.632812 -26.054688 20.96875 -25.515625 C 20.257812 -24.972656 19.71875 -24.535156 19.34375 -24.203125 C 17.925781 -22.910156 16.757812 -21.582031 15.84375 -20.21875 L 3.3125 -0.1875 L -5.296875 -0.1875 Z M 10.046875 -30.890625 L 10.109375 -30.828125 L 9.921875 -30.703125 Z M 10.046875 -30.890625 "/></g></g></g><g fill="#000000" fill-opacity="1"><g transform="translate(108.644244, 60.863761)"><g><path d="M 4.3125 -0.3125 C 3.101562 -0.5625 2.125 -1.1875 1.375 -2.1875 C 0.582031 -3.144531 0.164062 -4.617188 0.125 -6.609375 C 0.0820312 -8.359375 0.519531 -10.296875 1.4375 -12.421875 C 2.351562 -14.535156 3.515625 -16.65625 4.921875 -18.78125 C 5.921875 -20.320312 7.171875 -21.941406 8.671875 -23.640625 C 10.128906 -25.347656 11.75 -26.910156 13.53125 -28.328125 C 15.320312 -29.703125 17.238281 -30.84375 19.28125 -31.75 C 21.269531 -32.625 23.328125 -33.019531 25.453125 -32.9375 C 26.742188 -32.851562 27.597656 -32.414062 28.015625 -31.625 C 28.429688 -30.84375 28.578125 -29.910156 28.453125 -28.828125 C 28.328125 -27.742188 28.035156 -26.660156 27.578125 -25.578125 C 27.078125 -24.453125 26.597656 -23.554688 26.140625 -22.890625 C 25.054688 -21.359375 23.707031 -20.070312 22.09375 -19.03125 C 20.46875 -17.988281 18.757812 -17.507812 16.96875 -17.59375 L 17.15625 -17.78125 C 16.238281 -17.820312 15.507812 -18.113281 14.96875 -18.65625 C 14.425781 -19.15625 14.257812 -20.007812 14.46875 -21.21875 C 14.175781 -20.675781 13.90625 -20.113281 13.65625 -19.53125 C 13.375 -18.945312 13.109375 -18.320312 12.859375 -17.65625 C 11.859375 -15.03125 11.546875 -12.929688 11.921875 -11.359375 C 12.296875 -9.773438 13.207031 -8.878906 14.65625 -8.671875 C 16.113281 -8.421875 17.988281 -8.921875 20.28125 -10.171875 C 22.519531 -11.421875 25.078125 -13.601562 27.953125 -16.71875 C 27.242188 -15.507812 26.367188 -14.222656 25.328125 -12.859375 C 24.285156 -11.484375 23.164062 -10.128906 21.96875 -8.796875 C 20.71875 -7.460938 19.382812 -6.234375 17.96875 -5.109375 C 16.507812 -3.953125 15.03125 -2.957031 13.53125 -2.125 C 12 -1.289062 10.460938 -0.707031 8.921875 -0.375 C 7.335938 0 5.800781 0.0195312 4.3125 -0.3125 Z M 16.78125 -20.90625 C 17.53125 -20.820312 18.507812 -21.050781 19.71875 -21.59375 C 20.925781 -22.125 22.148438 -22.992188 23.390625 -24.203125 C 24.054688 -24.867188 24.660156 -25.554688 25.203125 -26.265625 C 25.703125 -26.929688 26.054688 -27.554688 26.265625 -28.140625 C 26.679688 -29.347656 26.179688 -29.929688 24.765625 -29.890625 L 24.703125 -29.890625 C 23.785156 -29.804688 22.625 -29.429688 21.21875 -28.765625 C 19.800781 -28.097656 18.363281 -26.847656 16.90625 -25.015625 C 15.863281 -23.804688 15.382812 -22.832031 15.46875 -22.09375 C 15.550781 -21.34375 15.988281 -20.945312 16.78125 -20.90625 Z M 16.78125 -20.90625 "/></g></g></g><g fill="#000000" fill-opacity="1"><g transform="translate(132.095106, 60.863761)"><g><path d="M 9.046875 -22.578125 C 9.503906 -23.367188 9.878906 -24.097656 10.171875 -24.765625 C 10.460938 -25.429688 10.628906 -26.078125 10.671875 -26.703125 C 10.710938 -27.910156 10.234375 -29.265625 9.234375 -30.765625 L 9.421875 -30.515625 C 11.085938 -31.546875 12.5 -32.226562 13.65625 -32.5625 C 14.820312 -32.851562 15.757812 -32.894531 16.46875 -32.6875 C 17.550781 -32.351562 18.195312 -31.671875 18.40625 -30.640625 C 18.570312 -29.597656 18.382812 -28.203125 17.84375 -26.453125 C 18.96875 -27.953125 20.21875 -29.242188 21.59375 -30.328125 C 22.914062 -31.398438 24.285156 -32.1875 25.703125 -32.6875 C 27.117188 -33.144531 28.515625 -33.289062 29.890625 -33.125 C 31.253906 -32.914062 32.5 -32.3125 33.625 -31.3125 C 34.125 -30.820312 34.5 -30.222656 34.75 -29.515625 C 34.957031 -28.765625 34.976562 -27.828125 34.8125 -26.703125 C 34.726562 -26.160156 34.375 -25.347656 33.75 -24.265625 C 33.082031 -23.179688 32.332031 -21.976562 31.5 -20.65625 C 30.632812 -19.320312 29.765625 -17.945312 28.890625 -16.53125 C 28.015625 -15.113281 27.285156 -13.847656 26.703125 -12.734375 C 26.117188 -11.523438 25.804688 -10.566406 25.765625 -9.859375 C 25.722656 -9.066406 26.078125 -8.671875 26.828125 -8.671875 C 27.328125 -8.671875 27.828125 -8.816406 28.328125 -9.109375 C 28.828125 -9.359375 29.328125 -9.671875 29.828125 -10.046875 C 30.035156 -10.253906 30.265625 -10.460938 30.515625 -10.671875 C 30.765625 -10.835938 30.988281 -11.023438 31.1875 -11.234375 C 31.644531 -11.648438 32.0625 -11.941406 32.4375 -12.109375 C 31.8125 -11.273438 31.109375 -10.335938 30.328125 -9.296875 C 29.535156 -8.253906 28.703125 -7.234375 27.828125 -6.234375 C 26.910156 -5.191406 25.992188 -4.238281 25.078125 -3.375 C 24.160156 -2.457031 23.265625 -1.726562 22.390625 -1.1875 C 21.566406 -0.644531 20.65625 -0.3125 19.65625 -0.1875 C 18.65625 -0.0625 17.695312 -0.101562 16.78125 -0.3125 C 15.40625 -0.644531 14.425781 -1.144531 13.84375 -1.8125 C 13.226562 -2.476562 12.878906 -3.226562 12.796875 -4.0625 C 12.710938 -4.882812 12.835938 -5.773438 13.171875 -6.734375 C 13.453125 -7.648438 13.863281 -8.566406 14.40625 -9.484375 C 14.90625 -10.398438 15.46875 -11.273438 16.09375 -12.109375 C 16.675781 -12.941406 17.195312 -13.664062 17.65625 -14.28125 L 26.765625 -26.453125 C 27.390625 -27.285156 27.578125 -28.015625 27.328125 -28.640625 C 27.035156 -29.222656 26.472656 -29.554688 25.640625 -29.640625 C 24.347656 -29.722656 23.101562 -29.304688 21.90625 -28.390625 C 20.65625 -27.472656 19.195312 -25.867188 17.53125 -23.578125 C 15.863281 -21.296875 13.847656 -18.238281 11.484375 -14.40625 C 9.109375 -10.539062 6.113281 -5.738281 2.5 0 L -6.109375 0 Z M 9.046875 -22.578125 "/></g></g></g><g clip-path="url(#8fb4a2195a)"><g fill="#000000" fill-opacity="1"><g transform="translate(162.157541, 60.863761)"><g><path d="M 19.90625 -0.5625 C 18.320312 -0.5625 17.113281 -1.0625 16.28125 -2.0625 C 15.445312 -3.0625 15.070312 -4.265625 15.15625 -5.671875 C 14.53125 -4.878906 13.765625 -4.175781 12.859375 -3.5625 C 11.898438 -2.894531 10.878906 -2.332031 9.796875 -1.875 C 7.546875 -0.914062 5.34375 -0.4375 3.1875 -0.4375 C 1.644531 -0.476562 0.5625 -0.976562 -0.0625 -1.9375 C -0.6875 -2.851562 -1.039062 -3.972656 -1.125 -5.296875 C -1.207031 -6.628906 -1.039062 -8.046875 -0.625 -9.546875 C -0.25 -11.003906 0.25 -12.289062 0.875 -13.40625 C 1.75 -14.988281 2.769531 -16.570312 3.9375 -18.15625 C 5.09375 -19.738281 6.335938 -21.253906 7.671875 -22.703125 C 8.796875 -23.953125 9.960938 -25.140625 11.171875 -26.265625 C 12.335938 -27.347656 13.476562 -28.328125 14.59375 -29.203125 C 15.71875 -30.078125 16.820312 -30.820312 17.90625 -31.4375 C 18.945312 -32.019531 19.90625 -32.414062 20.78125 -32.625 C 21.9375 -32.914062 23.035156 -33.019531 24.078125 -32.9375 C 25.078125 -32.851562 25.972656 -32.582031 26.765625 -32.125 C 27.515625 -31.664062 28.117188 -31.023438 28.578125 -30.203125 C 28.992188 -29.367188 29.179688 -28.328125 29.140625 -27.078125 L 33.125 -32.8125 L 41.921875 -32.8125 L 28.140625 -12.671875 C 27.265625 -11.421875 26.742188 -10.460938 26.578125 -9.796875 C 26.410156 -9.171875 26.492188 -8.796875 26.828125 -8.671875 C 27.117188 -8.546875 27.578125 -8.628906 28.203125 -8.921875 C 29.453125 -9.460938 30.925781 -10.378906 32.625 -11.671875 C 33.457031 -12.253906 34.226562 -12.816406 34.9375 -13.359375 C 35.601562 -13.890625 36.207031 -14.382812 36.75 -14.84375 C 37 -15.050781 37.226562 -15.21875 37.4375 -15.34375 C 37.601562 -15.46875 37.726562 -15.570312 37.8125 -15.65625 C 36.9375 -14.15625 35.832031 -12.535156 34.5 -10.796875 C 33.125 -9.003906 31.648438 -7.335938 30.078125 -5.796875 C 28.453125 -4.265625 26.742188 -2.976562 24.953125 -1.9375 C 23.160156 -0.894531 21.394531 -0.375 19.65625 -0.375 Z M 9.484375 -8.484375 C 10.398438 -7.898438 11.378906 -7.753906 12.421875 -8.046875 C 13.453125 -8.335938 14.445312 -8.835938 15.40625 -9.546875 C 16.363281 -10.253906 17.238281 -11.066406 18.03125 -11.984375 C 18.820312 -12.859375 19.46875 -13.644531 19.96875 -14.34375 L 26.453125 -23.328125 L 26.390625 -23.328125 C 26.640625 -24.160156 26.828125 -24.953125 26.953125 -25.703125 C 27.035156 -26.410156 27.035156 -27.054688 26.953125 -27.640625 C 26.867188 -28.179688 26.679688 -28.617188 26.390625 -28.953125 C 26.097656 -29.285156 25.660156 -29.472656 25.078125 -29.515625 C 24.117188 -29.554688 23.179688 -29.390625 22.265625 -29.015625 C 21.359375 -28.640625 20.488281 -28.097656 19.65625 -27.390625 C 18.78125 -26.679688 17.925781 -25.890625 17.09375 -25.015625 C 16.257812 -24.140625 15.46875 -23.265625 14.71875 -22.390625 C 12.976562 -20.359375 11.628906 -18.550781 10.671875 -16.96875 C 9.671875 -15.382812 9.003906 -14.035156 8.671875 -12.921875 C 8.296875 -11.753906 8.210938 -10.816406 8.421875 -10.109375 C 8.585938 -9.359375 8.941406 -8.816406 9.484375 -8.484375 Z M 9.484375 -8.484375 "/></g></g></g></g></g></g><g clip-path="url(#b5db198386)"><g transform="matrix(1, 0, 0, 1, 68, 86)"><g clip-path="url(#b9ad11f7af)"><g fill="#000000" fill-opacity="1"><g transform="translate(1.014253, 13.20905)"><g><path d="M 8.25 -2.796875 L 2.4375 -2.796875 L 1.171875 0 L 0.03125 0 L 4.8125 -10.453125 L 5.890625 -10.453125 L 10.671875 0 L 9.5 0 Z M 7.84375 -3.6875 L 5.34375 -9.296875 L 2.828125 -3.6875 Z M 7.84375 -3.6875 "/></g></g></g><g fill="#000000" fill-opacity="1"><g transform="translate(19.111427, 13.20905)"><g><path d="M 5.90625 0.09375 C 4.550781 0.09375 3.492188 -0.289062 2.734375 -1.0625 C 1.984375 -1.84375 1.609375 -2.976562 1.609375 -4.46875 L 1.609375 -10.453125 L 2.71875 -10.453125 L 2.71875 -4.5 C 2.71875 -3.289062 2.988281 -2.382812 3.53125 -1.78125 C 4.082031 -1.1875 4.875 -0.890625 5.90625 -0.890625 C 6.945312 -0.890625 7.742188 -1.1875 8.296875 -1.78125 C 8.847656 -2.382812 9.125 -3.289062 9.125 -4.5 L 9.125 -10.453125 L 10.1875 -10.453125 L 10.1875 -4.46875 C 10.1875 -2.976562 9.8125 -1.84375 9.0625 -1.0625 C 8.3125 -0.289062 7.257812 0.09375 5.90625 0.09375 Z M 5.90625 0.09375 "/></g></g></g><g fill="#000000" fill-opacity="1"><g transform="translate(38.326759, 13.20905)"><g/></g></g><g fill="#000000" fill-opacity="1"><g transform="translate(49.640542, 13.20905)"><g><path d="M 12.546875 -10.453125 L 12.546875 0 L 11.484375 0 L 11.484375 -8.359375 L 7.390625 -1.328125 L 6.859375 -1.328125 L 2.765625 -8.3125 L 2.765625 0 L 1.703125 0 L 1.703125 -10.453125 L 2.609375 -10.453125 L 7.140625 -2.703125 L 11.640625 -10.453125 Z M 12.546875 -10.453125 "/></g></g></g><g fill="#000000" fill-opacity="1"><g transform="translate(71.285958, 13.20905)"><g><path d="M 6.265625 0.09375 C 5.234375 0.09375 4.296875 -0.132812 3.453125 -0.59375 C 2.609375 -1.0625 1.953125 -1.695312 1.484375 -2.5 C 1.015625 -3.3125 0.78125 -4.21875 0.78125 -5.21875 C 0.78125 -6.226562 1.015625 -7.132812 1.484375 -7.9375 C 1.953125 -8.738281 2.609375 -9.367188 3.453125 -9.828125 C 4.296875 -10.296875 5.234375 -10.53125 6.265625 -10.53125 C 7.296875 -10.53125 8.226562 -10.300781 9.0625 -9.84375 C 9.894531 -9.382812 10.550781 -8.75 11.03125 -7.9375 C 11.507812 -7.132812 11.75 -6.226562 11.75 -5.21875 C 11.75 -4.21875 11.507812 -3.3125 11.03125 -2.5 C 10.550781 -1.6875 9.894531 -1.050781 9.0625 -0.59375 C 8.226562 -0.132812 7.296875 0.09375 6.265625 0.09375 Z M 6.265625 -0.890625 C 7.085938 -0.890625 7.832031 -1.078125 8.5 -1.453125 C 9.164062 -1.828125 9.6875 -2.34375 10.0625 -3 C 10.445312 -3.664062 10.640625 -4.40625 10.640625 -5.21875 C 10.640625 -6.039062 10.445312 -6.78125 10.0625 -7.4375 C 9.6875 -8.101562 9.164062 -8.617188 8.5 -8.984375 C 7.832031 -9.359375 7.085938 -9.546875 6.265625 -9.546875 C 5.441406 -9.546875 4.691406 -9.359375 4.015625 -8.984375 C 3.347656 -8.617188 2.820312 -8.101562 2.4375 -7.4375 C 2.050781 -6.78125 1.859375 -6.039062 1.859375 -5.21875 C 1.859375 -4.40625 2.050781 -3.664062 2.4375 -3 C 2.820312 -2.34375 3.347656 -1.828125 4.015625 -1.453125 C 4.691406 -1.078125 5.441406 -0.890625 6.265625 -0.890625 Z M 6.265625 -0.890625 "/></g></g></g><g fill="#000000" fill-opacity="1"><g transform="translate(91.201991, 13.20905)"><g><path d="M 3.734375 -9.484375 L 0.0625 -9.484375 L 0.0625 -10.453125 L 8.5 -10.453125 L 8.5 -9.484375 L 4.828125 -9.484375 L 4.828125 0 L 3.734375 0 Z M 3.734375 -9.484375 "/></g></g></g><g fill="#000000" fill-opacity="1"><g transform="translate(107.167249, 13.20905)"><g/></g></g><g fill="#000000" fill-opacity="1"><g transform="translate(118.481033, 13.20905)"><g><path d="M 2.8125 0.09375 C 2.21875 0.09375 1.664062 -0.0351562 1.15625 -0.296875 C 0.65625 -0.554688 0.242188 -0.925781 -0.078125 -1.40625 L 0.578125 -2.15625 C 1.160156 -1.289062 1.910156 -0.859375 2.828125 -0.859375 C 4.128906 -0.859375 4.78125 -1.625 4.78125 -3.15625 L 4.78125 -9.484375 L 0.953125 -9.484375 L 0.953125 -10.453125 L 5.859375 -10.453125 L 5.859375 -3.203125 C 5.859375 -2.109375 5.601562 -1.285156 5.09375 -0.734375 C 4.582031 -0.179688 3.820312 0.09375 2.8125 0.09375 Z M 2.8125 0.09375 "/></g></g></g><g fill="#000000" fill-opacity="1"><g transform="translate(133.357965, 13.20905)"><g><path d="M 5.90625 0.09375 C 4.550781 0.09375 3.492188 -0.289062 2.734375 -1.0625 C 1.984375 -1.84375 1.609375 -2.976562 1.609375 -4.46875 L 1.609375 -10.453125 L 2.71875 -10.453125 L 2.71875 -4.5 C 2.71875 -3.289062 2.988281 -2.382812 3.53125 -1.78125 C 4.082031 -1.1875 4.875 -0.890625 5.90625 -0.890625 C 6.945312 -0.890625 7.742188 -1.1875 8.296875 -1.78125 C 8.847656 -2.382812 9.125 -3.289062 9.125 -4.5 L 9.125 -10.453125 L 10.1875 -10.453125 L 10.1875 -4.46875 C 10.1875 -2.976562 9.8125 -1.84375 9.0625 -1.0625 C 8.3125 -0.289062 7.257812 0.09375 5.90625 0.09375 Z M 5.90625 0.09375 "/></g></g></g><g fill="#000000" fill-opacity="1"><g transform="translate(152.573297, 13.20905)"><g><path d="M 4.578125 0.09375 C 3.804688 0.09375 3.0625 -0.03125 2.34375 -0.28125 C 1.632812 -0.53125 1.085938 -0.859375 0.703125 -1.265625 L 1.140625 -2.125 C 1.515625 -1.738281 2.015625 -1.425781 2.640625 -1.1875 C 3.265625 -0.957031 3.910156 -0.84375 4.578125 -0.84375 C 5.515625 -0.84375 6.21875 -1.015625 6.6875 -1.359375 C 7.15625 -1.703125 7.390625 -2.148438 7.390625 -2.703125 C 7.390625 -3.117188 7.257812 -3.453125 7 -3.703125 C 6.75 -3.953125 6.4375 -4.144531 6.0625 -4.28125 C 5.695312 -4.414062 5.1875 -4.5625 4.53125 -4.71875 C 3.75 -4.914062 3.125 -5.101562 2.65625 -5.28125 C 2.1875 -5.46875 1.785156 -5.75 1.453125 -6.125 C 1.117188 -6.507812 0.953125 -7.023438 0.953125 -7.671875 C 0.953125 -8.191406 1.09375 -8.671875 1.375 -9.109375 C 1.65625 -9.546875 2.082031 -9.890625 2.65625 -10.140625 C 3.226562 -10.398438 3.945312 -10.53125 4.8125 -10.53125 C 5.40625 -10.53125 5.988281 -10.445312 6.5625 -10.28125 C 7.132812 -10.125 7.628906 -9.898438 8.046875 -9.609375 L 7.671875 -8.734375 C 7.234375 -9.015625 6.765625 -9.226562 6.265625 -9.375 C 5.765625 -9.519531 5.28125 -9.59375 4.8125 -9.59375 C 3.894531 -9.59375 3.203125 -9.414062 2.734375 -9.0625 C 2.273438 -8.707031 2.046875 -8.253906 2.046875 -7.703125 C 2.046875 -7.285156 2.171875 -6.945312 2.421875 -6.6875 C 2.679688 -6.4375 3 -6.242188 3.375 -6.109375 C 3.757812 -5.972656 4.273438 -5.828125 4.921875 -5.671875 C 5.691406 -5.484375 6.3125 -5.296875 6.78125 -5.109375 C 7.25 -4.921875 7.644531 -4.640625 7.96875 -4.265625 C 8.300781 -3.898438 8.46875 -3.398438 8.46875 -2.765625 C 8.46875 -2.234375 8.328125 -1.75 8.046875 -1.3125 C 7.765625 -0.882812 7.328125 -0.539062 6.734375 -0.28125 C 6.148438 -0.03125 5.429688 0.09375 4.578125 0.09375 Z M 4.578125 0.09375 "/></g></g></g><g fill="#000000" fill-opacity="1"><g transform="translate(169.149798, 13.20905)"><g><path d="M 3.734375 -9.484375 L 0.0625 -9.484375 L 0.0625 -10.453125 L 8.5 -10.453125 L 8.5 -9.484375 L 4.828125 -9.484375 L 4.828125 0 L 3.734375 0 Z M 3.734375 -9.484375 "/></g></g></g><g fill="#000000" fill-opacity="1"><g transform="translate(185.115057, 13.20905)"><g><path d="M 9.09375 -0.953125 L 9.09375 0 L 1.703125 0 L 1.703125 -10.453125 L 8.859375 -10.453125 L 8.859375 -9.484375 L 2.8125 -9.484375 L 2.8125 -5.78125 L 8.203125 -5.78125 L 8.203125 -4.828125 L 2.8125 -4.828125 L 2.8125 -0.953125 Z M 9.09375 -0.953125 "/></g></g></g></g></g></g></svg>